<?xml version="1.0"?>
<svg width="500" height="500" xmlns="http://www.w3.org/2000/svg" xmlns:svg="http://www.w3.org/2000/svg">
 <g class="layer">
  <title>Layer 1</title>
  <g id="freepik--Device--inject-116">
   <g id="freepik--Laptop--inject-116"/>
   <path d="m333.59,221c0,1.52 -0.05,3.41 -1,4.59c-6.65,8.3 -18.94,17.38 -23.75,21.63c0,0 -17,-14.57 -22.58,-20c-6.2,-6.07 -18.45,-19.18 -29.79,-15.35c0,0 -2.6,9.26 -0.19,15.8c1.56,4.25 10.13,11.5 17.79,17.26c6.68,5 27.46,21.89 34.25,22.68c2.79,0.33 8.26,-3.8 15.15,-10.2a189.58,189.58 0 0 0 15.85,-17.41c2.62,-3.21 7.59,-9.63 10.22,-12.79c9.13,-11 10.41,-14.86 6.18,-19.89c-5.76,-6.84 -11.69,-5.9 -11.66,-1.61c0,5.66 -2.84,8.51 -2.84,8.51" fill="#ffa8a7" id="svg_19"/>
   <path d="m330.14,213.15l-15,-8.64a8.53,8.53 0 0 1 -3.14,-11.64l0,0a8.51,8.51 0 0 1 11.63,-3.11l15,8.64l-8.49,14.75z" fill="#37474f" id="svg_20"/>
   <path d="m329.35,197.89l0,0a2.69,2.69 0 0 1 -3.67,1l-7.1,-4.1a2.68,2.68 0 0 1 -1,-3.68l0,0a2.69,2.69 0 0 1 3.67,-1l7.1,4.1a2.69,2.69 0 0 1 1,3.68z" fill="#455a64" id="svg_21"/>
   <path d="m341,207.13l0,-12.49a4.34,4.34 0 0 0 -2,-3.4l-3.45,-2a4.32,4.32 0 0 0 -3.93,0l-10.81,6.24a4.34,4.34 0 0 0 -2,3.41l0,12.49a4.34,4.34 0 0 0 2,3.4l3.44,2a4.32,4.32 0 0 0 3.93,0l10.82,-6.25a4.34,4.34 0 0 0 2,-3.4z" fill="#7E57C2" id="svg_22"/>
   <path d="m341,194.33c-0.13,-1 -1,-1.39 -1.94,-0.82l-10.82,6.24a4.16,4.16 0 0 0 -1.39,1.46l-7.43,-4.21a4.08,4.08 0 0 1 1.39,-1.46l0,0l10.81,-6.25a4.38,4.38 0 0 1 3.93,0l3.45,2a4.38,4.38 0 0 1 2,3.04z" fill="#fff" id="svg_23" opacity="0.5"/>
   <path d="m328.19,199.75l10.81,-6.24c1.08,-0.63 2,-0.12 2,1.13l0,12.49a4.34,4.34 0 0 1 -2,3.4l-10.82,6.25c-1.09,0.63 -2,0.12 -2,-1.14l0,-12.49a4.34,4.34 0 0 1 2.01,-3.4z" id="svg_24" opacity="0.1"/>
   <path d="m335.94,201.77a1.93,1.93 0 0 0 -2.05,0.15a6.32,6.32 0 0 0 -2.83,5a2,2 0 0 0 0.85,1.88l0,0l25,14.44l3.94,-7.06l-24.91,-14.41z" fill="#455a64" id="svg_25"/>
   <path d="m331.69,204.45a5.71,5.71 0 0 0 -0.63,2.44a2,2 0 0 0 0.85,1.88l0,0l25,14.44l1.77,-3.17l-26.99,-15.59z" fill="#37474f" id="svg_26"/>
   <path d="m358.83,216.34a6.33,6.33 0 0 0 -2.84,5c0,1.84 1.27,2.59 2.84,1.69a6.34,6.34 0 0 0 2.83,-5c0,-1.84 -1.27,-2.59 -2.83,-1.69z" fill="#263238" id="svg_27"/>
   <path d="m347.35,202.29c-1.84,0 -5.47,1.57 -5.49,3.37s3.27,2.33 3.27,2.33s-0.59,0.67 0.16,1.74s4.6,1.5 4.6,1.5s-0.66,0.66 0.21,1.49s6,0 6,0l-8.75,-10.43z" fill="#ffa8a7" id="svg_28"/>
   <path d="m341.22,214.17a19.09,19.09 0 0 0 -0.5,-5.3c-0.65,-2.53 -2.65,-3.35 -3.57,-3.19c-0.72,0.12 -0.14,2.95 -0.9,5.8c-1,3.64 -2.62,5.41 -2.66,9.49" fill="#ffa8a7" id="svg_29"/>
   <path d="m207.48,339.59c-0.72,-9 0.15,-18.08 0.55,-22.89c2,-23.51 16.07,-33.26 19.24,-43.72l38.15,6.31l9.58,-1.08a148.43,148.43 0 0 1 2.45,21l-69.97,40.38z" fill="#7E57C2" id="svg_30"/>
   <path d="m207.48,339.59c-0.72,-9 0.15,-18.08 0.55,-22.89c2,-23.51 16.07,-33.26 19.24,-43.72l38.15,6.31l9.58,-1.08a148.43,148.43 0 0 1 2.45,21l-69.97,40.38z" id="svg_31" opacity="0.5"/>
   <path d="m275.94,259.61c8.59,-9.84 6.14,-18.23 2.74,-25c-6.79,-13.61 -16.14,-22.93 -22.13,-22.63l-18.55,2.24l-10.43,3.54l-5,2.62s-5.06,4 -5.31,9.89c-0.27,6.41 -0.84,11.14 5.06,21.34l5.41,12.63a20.44,20.44 0 0 1 0.19,5.67c-0.6,3.08 -3.9,8.65 -7.35,13.41a49.38,49.38 0 0 0 -4.93,8.15s5.27,7.75 20.16,10.56c13.55,2.56 36.9,-1.75 41.19,-10.06c0,0 -0.7,-13.29 -1.6,-20.77c0.26,-6.1 0.55,-11.59 0.55,-11.59z" fill="#fafafa" id="svg_32"/>
   <path d="m227.61,292.44c-0.26,-5.23 3.89,-11.54 7.13,-16.53s1.14,-8.54 -1.21,-13.27a20.92,20.92 0 0 1 -1.15,-17c2.4,-6.13 0.84,-14.83 -2.78,-23.79l-10.88,12.49l-1.56,3.08c0.31,3.78 1.5,8 5.11,14.22l5.41,12.63a20.44,20.44 0 0 1 0.19,5.67c-0.6,3.08 -3.9,8.65 -7.35,13.41a49.38,49.38 0 0 0 -4.93,8.15s5.27,7.75 20.16,10.56a51.34,51.34 0 0 0 10.75,0.7c-8.93,-1.21 -18.66,-5.82 -18.89,-10.32z" fill="#ebebeb" id="svg_33"/>
   <path d="m240,137.61l-0.7,2.68a11,11 0 0 0 -2.15,-5.4c-4.06,-5.32 -12.26,-5.88 -18.33,-1.26s-7.68,12.69 -3.62,18s12.26,5.88 18.32,1.26a14.92,14.92 0 0 0 5.36,-7.73a3.69,3.69 0 0 0 3.9,-2.74a4,4 0 0 0 -2.78,-4.81z" fill="#7E57C2" id="svg_34"/>
   <path d="m240,137.61l-0.7,2.68a11,11 0 0 0 -2.15,-5.4c-4.06,-5.32 -12.26,-5.88 -18.33,-1.26s-7.68,12.69 -3.62,18s12.26,5.88 18.32,1.26a14.92,14.92 0 0 0 5.36,-7.73a3.69,3.69 0 0 0 3.9,-2.74a4,4 0 0 0 -2.78,-4.81z" id="svg_35" opacity="0.5"/>
   <path d="m251.26,203.84l-3,0a29.53,29.53 0 0 1 -29.55,-29.53l0,-1.93c0.52,-16.58 14.06,-29.61 30.25,-29.1l3.42,0.1c16.19,0.51 28.89,14.36 28.38,30.93l0,0a29.54,29.54 0 0 1 -29.5,29.53z" fill="#7E57C2" id="svg_36"/>
   <g id="svg_37" opacity="0.4">
    <path d="m251.26,203.84l-3,0a29.53,29.53 0 0 1 -29.55,-29.53l0,-1.93c0.52,-16.58 14.06,-29.61 30.25,-29.1l3.42,0.1c16.19,0.51 28.89,14.36 28.38,30.93l0,0a29.54,29.54 0 0 1 -29.5,29.53z" id="svg_38"/>
   </g>
   <path d="m271.12,159.51c3.35,2.12 6.93,8.5 5.95,26.48c-0.83,15.23 -5.89,18.85 -8.4,19.85s-7.28,0.2 -11.91,-0.72l-0.28,9.15s12.55,12.66 0.28,11.93s-18.77,-12 -18.77,-12l0,-21.82s-3.14,3.32 -8.17,-0.25a8.78,8.78 0 0 1 -1.3,-13.19c3.08,-2.94 8.72,-1.18 9.79,3.05c0,0 7.63,-0.09 17.46,-5.62c12.31,-6.92 13.55,-13.11 15.35,-16.86z" fill="#ffa8a7" id="svg_39"/>
   <path d="m258.87,181.07a2.11,2.11 0 1 1 -2.15,-2.16a2.14,2.14 0 0 1 2.15,2.16z" fill="#263238" id="svg_40"/>
   <path d="m260.28,194.57l4.41,1.56a2.29,2.29 0 0 1 -2.95,1.5a2.44,2.44 0 0 1 -1.46,-3.06z" fill="#f28f8f" id="svg_41"/>
   <path d="m275.56,174.32l-4.44,-1.61a2.27,2.27 0 0 1 2.95,-1.46a2.48,2.48 0 0 1 1.49,3.07z" fill="#263238" id="svg_42"/>
   <path d="m274.15,180.14a2.14,2.14 0 0 1 -2.07,2.23a2.19,2.19 0 1 1 2.07,-2.23z" fill="#263238" id="svg_43"/>
   <polygon fill="#f28f8f" id="svg_44" points="264.1699981689453,179.22999572753906 264.11000061035156,191.6300048828125 270.70001220703125,189.80999755859375 264.1699981689453,179.22999572753906 "/>
   <path d="m256.76,205.12c-4.88,-0.79 -14.88,-4 -16.33,-8a10.38,10.38 0 0 0 3.38,5.2c2.93,2.67 12.85,5.9 12.85,5.9l0.1,-3.1z" fill="#f28f8f" id="svg_45"/>
   <path d="m227.56,217.76c-11.64,3.42 -13.6,5.58 -19,17c-5,10.52 -8.85,17.68 -13.23,28.59c-9.22,-9.45 -21.37,-21.86 -24.48,-28.74c-0.66,-1.47 -1.42,-3.1 -1,-4.65c1.22,-4.12 0.1,-6.4 0.24,-10.36c0.12,-3.08 1.1,-4.71 0.42,-5c-0.87,-0.45 -3,-0.54 -4.42,1.79a18.14,18.14 0 0 0 -1.7,4.71a36.36,36.36 0 0 1 -1.71,-9.9c-0.33,-8 -2.71,-11 -10.43,-4.29c-4.84,4.23 -6,10.59 -0.25,24.38c1.67,4 5.16,9.79 8,14.44c6.12,9.91 21.77,30.06 29.17,39.85a9.3,9.3 0 0 0 11.15,3c2.48,-1.11 2.87,-2 4.68,-3.93c3.19,-3.41 17.09,-29.82 17.09,-29.82s7.61,-10.28 8.3,-17.16c1.61,-15.8 -2.83,-19.91 -2.83,-19.91z" fill="#ffa8a7" id="svg_46"/>
  </g>
 </g>
</svg>