<svg class="w-10 h-10" viewBox="0 0 146 38" fill="none" xmlns="http://www.w3.org/2000/svg">
                  <path d="M7 3.5C7 5.4 5.4 7 3.5 7C1.6 7 0 5.4 0 3.5C0 1.6 1.6 0 3.5 0C5.4 0 7 1.6 7 3.5Z" fill="#e0e0e0"/>
                  <path d="M7 3.5C7 5.4 5.4 7 3.5 7C1.6 7 0 5.4 0 3.5C0 1.6 1.6 0 3.5 0C5.4 0 7 1.6 7 3.5Z" fill="#e0e0e0" fill-opacity="0.2"/>
                  <path d="M20.9004 3.5C20.9004 5.4 19.3004 7 17.4004 7C15.5004 7 13.9004 5.4 13.9004 3.5C13.9004 1.6 15.5004 0 17.4004 0C19.3004 0 20.9004 1.6 20.9004 3.5Z" fill="#e0e0e0"/>
                  <path d="M20.9004 3.5C20.9004 5.4 19.3004 7 17.4004 7C15.5004 7 13.9004 5.4 13.9004 3.5C13.9004 1.6 15.5004 0 17.4004 0C19.3004 0 20.9004 1.6 20.9004 3.5Z" fill="#e0e0e0" fill-opacity="0.2"/>
                  <path d="M34.7002 3.5C34.7002 5.4 33.1002 7 31.2002 7C29.3002 7 27.7002 5.4 27.7002 3.5C27.7002 1.6 29.3002 0 31.2002 0C33.1002 0 34.7002 1.6 34.7002 3.5Z" fill="#e0e0e0"/>
                  <path d="M34.7002 3.5C34.7002 5.4 33.1002 7 31.2002 7C29.3002 7 27.7002 5.4 27.7002 3.5C27.7002 1.6 29.3002 0 31.2002 0C33.1002 0 34.7002 1.6 34.7002 3.5Z" fill="#e0e0e0" fill-opacity="0.2"/>
                  <path d="M48.5996 3.5C48.5996 5.4 46.9996 7 45.0996 7C43.1996 7 41.5996 5.4 41.5996 3.5C41.5996 1.6 43.1996 0 45.0996 0C46.9996 0 48.5996 1.6 48.5996 3.5Z" fill="#e0e0e0"/>
                  <path d="M48.5996 3.5C48.5996 5.4 46.9996 7 45.0996 7C43.1996 7 41.5996 5.4 41.5996 3.5C41.5996 1.6 43.1996 0 45.0996 0C46.9996 0 48.5996 1.6 48.5996 3.5Z" fill="#e0e0e0" fill-opacity="0.2"/>
                  <path d="M62.5 3.5C62.5 5.4 60.9 7 59 7C57.1 7 55.5 5.4 55.5 3.5C55.5 1.6 57.1 0 59 0C60.9 0 62.5 1.6 62.5 3.5Z" fill="#e0e0e0"/>
                  <path d="M62.5 3.5C62.5 5.4 60.9 7 59 7C57.1 7 55.5 5.4 55.5 3.5C55.5 1.6 57.1 0 59 0C60.9 0 62.5 1.6 62.5 3.5Z" fill="#e0e0e0" fill-opacity="0.2"/>
                  <path d="M76.2998 3.5C76.2998 5.4 74.6998 7 72.7998 7C70.8998 7 69.2998 5.4 69.2998 3.5C69.2998 1.6 70.8998 0 72.7998 0C74.6998 0 76.2998 1.6 76.2998 3.5Z" fill="#e0e0e0"/>
                  <path d="M76.2998 3.5C76.2998 5.4 74.6998 7 72.7998 7C70.8998 7 69.2998 5.4 69.2998 3.5C69.2998 1.6 70.8998 0 72.7998 0C74.6998 0 76.2998 1.6 76.2998 3.5Z" fill="#e0e0e0" fill-opacity="0.2"/>
                  <path d="M90.2002 3.5C90.2002 5.4 88.6002 7 86.7002 7C84.8002 7 83.2002 5.4 83.2002 3.5C83.2002 1.6 84.8002 0 86.7002 0C88.6002 0 90.2002 1.6 90.2002 3.5Z" fill="#e0e0e0"/>
                  <path d="M90.2002 3.5C90.2002 5.4 88.6002 7 86.7002 7C84.8002 7 83.2002 5.4 83.2002 3.5C83.2002 1.6 84.8002 0 86.7002 0C88.6002 0 90.2002 1.6 90.2002 3.5Z" fill="#e0e0e0" fill-opacity="0.2"/>
                  <path d="M104.1 3.5C104.1 5.4 102.5 7 100.6 7C98.6996 7 97.0996 5.4 97.0996 3.5C97.0996 1.6 98.6996 0 100.6 0C102.5 0 104.1 1.6 104.1 3.5Z" fill="#e0e0e0"/>
                  <path d="M104.1 3.5C104.1 5.4 102.5 7 100.6 7C98.6996 7 97.0996 5.4 97.0996 3.5C97.0996 1.6 98.6996 0 100.6 0C102.5 0 104.1 1.6 104.1 3.5Z" fill="#e0e0e0" fill-opacity="0.2"/>
                  <path d="M117.9 3.5C117.9 5.4 116.3 7 114.4 7C112.5 7 110.9 5.4 110.9 3.5C110.9 1.6 112.5 0 114.4 0C116.4 0 117.9 1.6 117.9 3.5Z" fill="#e0e0e0"/>
                  <path d="M117.9 3.5C117.9 5.4 116.3 7 114.4 7C112.5 7 110.9 5.4 110.9 3.5C110.9 1.6 112.5 0 114.4 0C116.4 0 117.9 1.6 117.9 3.5Z" fill="#e0e0e0" fill-opacity="0.2"/>
                  <path d="M131.8 3.5C131.8 5.4 130.2 7 128.3 7C126.4 7 124.8 5.4 124.8 3.5C124.8 1.6 126.4 0 128.3 0C130.2 0 131.8 1.6 131.8 3.5Z" fill="#e0e0e0"/>
                  <path d="M131.8 3.5C131.8 5.4 130.2 7 128.3 7C126.4 7 124.8 5.4 124.8 3.5C124.8 1.6 126.4 0 128.3 0C130.2 0 131.8 1.6 131.8 3.5Z" fill="#e0e0e0" fill-opacity="0.2"/>
                  <path d="M145.7 3.5C145.7 5.4 144.1 7 142.2 7C140.3 7 138.7 5.4 138.7 3.5C138.7 1.6 140.3 0 142.2 0C144.1 0 145.7 1.6 145.7 3.5Z" fill="#e0e0e0"/>
                  <path d="M145.7 3.5C145.7 5.4 144.1 7 142.2 7C140.3 7 138.7 5.4 138.7 3.5C138.7 1.6 140.3 0 142.2 0C144.1 0 145.7 1.6 145.7 3.5Z" fill="#e0e0e0" fill-opacity="0.2"/>
                  <path d="M7 18.8999C7 20.7999 5.4 22.3999 3.5 22.3999C1.6 22.3999 0 20.7999 0 18.8999C0 16.9999 1.6 15.3999 3.5 15.3999C5.4 15.3999 7 16.8999 7 18.8999Z" fill="#e0e0e0"/>
                  <path d="M7 18.8999C7 20.7999 5.4 22.3999 3.5 22.3999C1.6 22.3999 0 20.7999 0 18.8999C0 16.9999 1.6 15.3999 3.5 15.3999C5.4 15.3999 7 16.8999 7 18.8999Z" fill="#e0e0e0" fill-opacity="0.2"/>
                  <path d="M20.9004 18.8999C20.9004 20.7999 19.3004 22.3999 17.4004 22.3999C15.5004 22.3999 13.9004 20.7999 13.9004 18.8999C13.9004 16.9999 15.5004 15.3999 17.4004 15.3999C19.3004 15.3999 20.9004 16.8999 20.9004 18.8999Z" fill="#e0e0e0"/>
                  <path d="M20.9004 18.8999C20.9004 20.7999 19.3004 22.3999 17.4004 22.3999C15.5004 22.3999 13.9004 20.7999 13.9004 18.8999C13.9004 16.9999 15.5004 15.3999 17.4004 15.3999C19.3004 15.3999 20.9004 16.8999 20.9004 18.8999Z" fill="#e0e0e0" fill-opacity="0.2"/>
                  <path d="M34.7002 18.8999C34.7002 20.7999 33.1002 22.3999 31.2002 22.3999C29.3002 22.3999 27.7002 20.7999 27.7002 18.8999C27.7002 16.9999 29.3002 15.3999 31.2002 15.3999C33.1002 15.3999 34.7002 16.8999 34.7002 18.8999Z" fill="#e0e0e0"/>
                  <path d="M34.7002 18.8999C34.7002 20.7999 33.1002 22.3999 31.2002 22.3999C29.3002 22.3999 27.7002 20.7999 27.7002 18.8999C27.7002 16.9999 29.3002 15.3999 31.2002 15.3999C33.1002 15.3999 34.7002 16.8999 34.7002 18.8999Z" fill="#e0e0e0" fill-opacity="0.2"/>
                  <path d="M48.5996 18.8999C48.5996 20.7999 46.9996 22.3999 45.0996 22.3999C43.1996 22.3999 41.5996 20.7999 41.5996 18.8999C41.5996 16.9999 43.1996 15.3999 45.0996 15.3999C46.9996 15.3999 48.5996 16.8999 48.5996 18.8999Z" fill="#e0e0e0"/>
                  <path d="M48.5996 18.8999C48.5996 20.7999 46.9996 22.3999 45.0996 22.3999C43.1996 22.3999 41.5996 20.7999 41.5996 18.8999C41.5996 16.9999 43.1996 15.3999 45.0996 15.3999C46.9996 15.3999 48.5996 16.8999 48.5996 18.8999Z" fill="#e0e0e0" fill-opacity="0.2"/>
                  <path d="M62.5 18.8999C62.5 20.7999 60.9 22.3999 59 22.3999C57.1 22.3999 55.5 20.7999 55.5 18.8999C55.5 16.9999 57.1 15.3999 59 15.3999C60.9 15.3999 62.5 16.8999 62.5 18.8999Z" fill="#e0e0e0"/>
                  <path d="M62.5 18.8999C62.5 20.7999 60.9 22.3999 59 22.3999C57.1 22.3999 55.5 20.7999 55.5 18.8999C55.5 16.9999 57.1 15.3999 59 15.3999C60.9 15.3999 62.5 16.8999 62.5 18.8999Z" fill="#e0e0e0" fill-opacity="0.2"/>
                  <path d="M76.2998 18.8999C76.2998 20.7999 74.6998 22.3999 72.7998 22.3999C70.8998 22.3999 69.2998 20.7999 69.2998 18.8999C69.2998 16.9999 70.8998 15.3999 72.7998 15.3999C74.6998 15.3999 76.2998 16.8999 76.2998 18.8999Z" fill="#e0e0e0"/>
                  <path d="M76.2998 18.8999C76.2998 20.7999 74.6998 22.3999 72.7998 22.3999C70.8998 22.3999 69.2998 20.7999 69.2998 18.8999C69.2998 16.9999 70.8998 15.3999 72.7998 15.3999C74.6998 15.3999 76.2998 16.8999 76.2998 18.8999Z" fill="#e0e0e0" fill-opacity="0.2"/>
                  <path d="M90.2002 18.8999C90.2002 20.7999 88.6002 22.3999 86.7002 22.3999C84.8002 22.3999 83.2002 20.7999 83.2002 18.8999C83.2002 16.9999 84.8002 15.3999 86.7002 15.3999C88.6002 15.3999 90.2002 16.8999 90.2002 18.8999Z" fill="#e0e0e0"/>
                  <path d="M90.2002 18.8999C90.2002 20.7999 88.6002 22.3999 86.7002 22.3999C84.8002 22.3999 83.2002 20.7999 83.2002 18.8999C83.2002 16.9999 84.8002 15.3999 86.7002 15.3999C88.6002 15.3999 90.2002 16.8999 90.2002 18.8999Z" fill="#e0e0e0" fill-opacity="0.2"/>
                  <path d="M104.1 18.8999C104.1 20.7999 102.5 22.3999 100.6 22.3999C98.6996 22.3999 97.0996 20.7999 97.0996 18.8999C97.0996 16.9999 98.6996 15.3999 100.6 15.3999C102.5 15.3999 104.1 16.8999 104.1 18.8999Z" fill="#e0e0e0"/>
                  <path d="M104.1 18.8999C104.1 20.7999 102.5 22.3999 100.6 22.3999C98.6996 22.3999 97.0996 20.7999 97.0996 18.8999C97.0996 16.9999 98.6996 15.3999 100.6 15.3999C102.5 15.3999 104.1 16.8999 104.1 18.8999Z" fill="#e0e0e0" fill-opacity="0.2"/>
                  <path d="M117.9 18.8999C117.9 20.7999 116.3 22.3999 114.4 22.3999C112.5 22.3999 110.9 20.7999 110.9 18.8999C110.9 16.9999 112.5 15.3999 114.4 15.3999C116.4 15.3999 117.9 16.8999 117.9 18.8999Z" fill="#e0e0e0"/>
                  <path d="M117.9 18.8999C117.9 20.7999 116.3 22.3999 114.4 22.3999C112.5 22.3999 110.9 20.7999 110.9 18.8999C110.9 16.9999 112.5 15.3999 114.4 15.3999C116.4 15.3999 117.9 16.8999 117.9 18.8999Z" fill="#e0e0e0" fill-opacity="0.2"/>
                  <path d="M131.8 18.8999C131.8 20.7999 130.2 22.3999 128.3 22.3999C126.4 22.3999 124.8 20.7999 124.8 18.8999C124.8 16.9999 126.4 15.3999 128.3 15.3999C130.2 15.3999 131.8 16.8999 131.8 18.8999Z" fill="#e0e0e0"/>
                  <path d="M131.8 18.8999C131.8 20.7999 130.2 22.3999 128.3 22.3999C126.4 22.3999 124.8 20.7999 124.8 18.8999C124.8 16.9999 126.4 15.3999 128.3 15.3999C130.2 15.3999 131.8 16.8999 131.8 18.8999Z" fill="#e0e0e0" fill-opacity="0.2"/>
                  <path d="M145.7 18.8999C145.7 20.7999 144.1 22.3999 142.2 22.3999C140.3 22.3999 138.7 20.7999 138.7 18.8999C138.7 16.9999 140.3 15.3999 142.2 15.3999C144.1 15.3999 145.7 16.8999 145.7 18.8999Z" fill="#e0e0e0"/>
                  <path d="M145.7 18.8999C145.7 20.7999 144.1 22.3999 142.2 22.3999C140.3 22.3999 138.7 20.7999 138.7 18.8999C138.7 16.9999 140.3 15.3999 142.2 15.3999C144.1 15.3999 145.7 16.8999 145.7 18.8999Z" fill="#e0e0e0" fill-opacity="0.2"/>
                  <path d="M7 34.2999C7 36.1999 5.4 37.7999 3.5 37.7999C1.6 37.7999 0 36.1999 0 34.2999C0 32.3999 1.6 30.7999 3.5 30.7999C5.4 30.6999 7 32.2999 7 34.2999Z" fill="#e0e0e0"/>
                  <path d="M7 34.2999C7 36.1999 5.4 37.7999 3.5 37.7999C1.6 37.7999 0 36.1999 0 34.2999C0 32.3999 1.6 30.7999 3.5 30.7999C5.4 30.6999 7 32.2999 7 34.2999Z" fill="#e0e0e0" fill-opacity="0.2"/>
                  <path d="M20.9004 34.2998C20.9004 36.1998 19.3004 37.7998 17.4004 37.7998C15.5004 37.7998 13.9004 36.1998 13.9004 34.2998C13.9004 32.3998 15.5004 30.7998 17.4004 30.7998C19.3004 30.7998 20.9004 32.2998 20.9004 34.2998Z" fill="#e0e0e0"/>
                  <path d="M20.9004 34.2998C20.9004 36.1998 19.3004 37.7998 17.4004 37.7998C15.5004 37.7998 13.9004 36.1998 13.9004 34.2998C13.9004 32.3998 15.5004 30.7998 17.4004 30.7998C19.3004 30.7998 20.9004 32.2998 20.9004 34.2998Z" fill="#e0e0e0" fill-opacity="0.2"/>
                  <path d="M34.7002 34.2999C34.7002 36.1999 33.1002 37.7999 31.2002 37.7999C29.3002 37.7999 27.7002 36.1999 27.7002 34.2999C27.7002 32.3999 29.3002 30.7999 31.2002 30.7999C33.1002 30.6999 34.7002 32.2999 34.7002 34.2999Z" fill="#e0e0e0"/>
                  <path d="M34.7002 34.2999C34.7002 36.1999 33.1002 37.7999 31.2002 37.7999C29.3002 37.7999 27.7002 36.1999 27.7002 34.2999C27.7002 32.3999 29.3002 30.7999 31.2002 30.7999C33.1002 30.6999 34.7002 32.2999 34.7002 34.2999Z" fill="#e0e0e0" fill-opacity="0.2"/>
                  <path d="M48.5996 34.2999C48.5996 36.1999 46.9996 37.7999 45.0996 37.7999C43.1996 37.7999 41.5996 36.1999 41.5996 34.2999C41.5996 32.3999 43.1996 30.7999 45.0996 30.7999C46.9996 30.6999 48.5996 32.2999 48.5996 34.2999Z" fill="#e0e0e0"/>
                  <path d="M48.5996 34.2999C48.5996 36.1999 46.9996 37.7999 45.0996 37.7999C43.1996 37.7999 41.5996 36.1999 41.5996 34.2999C41.5996 32.3999 43.1996 30.7999 45.0996 30.7999C46.9996 30.6999 48.5996 32.2999 48.5996 34.2999Z" fill="#e0e0e0" fill-opacity="0.2"/>
                  <path d="M62.5 34.2998C62.5 36.1998 60.9 37.7998 59 37.7998C57.1 37.7998 55.5 36.1998 55.5 34.2998C55.5 32.3998 57.1 30.7998 59 30.7998C60.9 30.7998 62.5 32.2998 62.5 34.2998Z" fill="#e0e0e0"/>
                  <path d="M62.5 34.2998C62.5 36.1998 60.9 37.7998 59 37.7998C57.1 37.7998 55.5 36.1998 55.5 34.2998C55.5 32.3998 57.1 30.7998 59 30.7998C60.9 30.7998 62.5 32.2998 62.5 34.2998Z" fill="#e0e0e0" fill-opacity="0.2"/>
                  <path d="M76.2998 34.2998C76.2998 36.1998 74.6998 37.7998 72.7998 37.7998C70.8998 37.7998 69.2998 36.1998 69.2998 34.2998C69.2998 32.3998 70.8998 30.7998 72.7998 30.7998C74.6998 30.7998 76.2998 32.2998 76.2998 34.2998Z" fill="#e0e0e0"/>
                  <path d="M76.2998 34.2998C76.2998 36.1998 74.6998 37.7998 72.7998 37.7998C70.8998 37.7998 69.2998 36.1998 69.2998 34.2998C69.2998 32.3998 70.8998 30.7998 72.7998 30.7998C74.6998 30.7998 76.2998 32.2998 76.2998 34.2998Z" fill="#e0e0e0" fill-opacity="0.2"/>
                  <path d="M90.2002 34.2998C90.2002 36.1998 88.6002 37.7998 86.7002 37.7998C84.8002 37.7998 83.2002 36.1998 83.2002 34.2998C83.2002 32.3998 84.8002 30.7998 86.7002 30.7998C88.6002 30.7998 90.2002 32.2998 90.2002 34.2998Z" fill="#e0e0e0"/>
                  <path d="M90.2002 34.2998C90.2002 36.1998 88.6002 37.7998 86.7002 37.7998C84.8002 37.7998 83.2002 36.1998 83.2002 34.2998C83.2002 32.3998 84.8002 30.7998 86.7002 30.7998C88.6002 30.7998 90.2002 32.2998 90.2002 34.2998Z" fill="#e0e0e0" fill-opacity="0.2"/>
                  <path d="M104.1 34.2998C104.1 36.1998 102.5 37.7998 100.6 37.7998C98.6996 37.7998 97.0996 36.1998 97.0996 34.2998C97.0996 32.3998 98.6996 30.7998 100.6 30.7998C102.5 30.7998 104.1 32.2998 104.1 34.2998Z" fill="#e0e0e0"/>
                  <path d="M104.1 34.2998C104.1 36.1998 102.5 37.7998 100.6 37.7998C98.6996 37.7998 97.0996 36.1998 97.0996 34.2998C97.0996 32.3998 98.6996 30.7998 100.6 30.7998C102.5 30.7998 104.1 32.2998 104.1 34.2998Z" fill="#e0e0e0" fill-opacity="0.2"/>
                  <path d="M117.9 34.2999C117.9 36.1999 116.3 37.7999 114.4 37.7999C112.5 37.7999 110.9 36.1999 110.9 34.2999C110.9 32.3999 112.5 30.7999 114.4 30.7999C116.4 30.6999 117.9 32.2999 117.9 34.2999Z" fill="#e0e0e0"/>
                  <path d="M117.9 34.2999C117.9 36.1999 116.3 37.7999 114.4 37.7999C112.5 37.7999 110.9 36.1999 110.9 34.2999C110.9 32.3999 112.5 30.7999 114.4 30.7999C116.4 30.6999 117.9 32.2999 117.9 34.2999Z" fill="#e0e0e0" fill-opacity="0.2"/>
                  <path d="M131.8 34.2999C131.8 36.1999 130.2 37.7999 128.3 37.7999C126.4 37.7999 124.8 36.1999 124.8 34.2999C124.8 32.3999 126.4 30.7999 128.3 30.7999C130.2 30.6999 131.8 32.2999 131.8 34.2999Z" fill="#e0e0e0"/>
                  <path d="M131.8 34.2999C131.8 36.1999 130.2 37.7999 128.3 37.7999C126.4 37.7999 124.8 36.1999 124.8 34.2999C124.8 32.3999 126.4 30.7999 128.3 30.7999C130.2 30.6999 131.8 32.2999 131.8 34.2999Z" fill="#e0e0e0" fill-opacity="0.2"/>
                  <path d="M145.7 34.2999C145.7 36.1999 144.1 37.7999 142.2 37.7999C140.3 37.7999 138.7 36.1999 138.7 34.2999C138.7 32.3999 140.3 30.7999 142.2 30.7999C144.1 30.6999 145.7 32.2999 145.7 34.2999Z" fill="#e0e0e0"/>
                  <path d="M145.7 34.2999C145.7 36.1999 144.1 37.7999 142.2 37.7999C140.3 37.7999 138.7 36.1999 138.7 34.2999C138.7 32.3999 140.3 30.7999 142.2 30.7999C144.1 30.6999 145.7 32.2999 145.7 34.2999Z" fill="#e0e0e0" fill-opacity="0.2"/>
</svg>