<?xml version="1.0" encoding="UTF-8"?>
<svg viewBox="0 0 1600 1200" xmlns="http://www.w3.org/2000/svg">
 <defs>
  <filter id="a" color-interpolation-filters="sRGB">
   <feGaussianBlur stdDeviation="0.917411"/>
  </filter>
 </defs>
 <g transform="rotate(-.0030606 702.02 405.85)">
  <path transform="rotate(.36208 693.04 406.31)" d="m130.61 114.71c0.55081 3.3128 1.0008 6.6678 1.0008 10.116 0 38.401-35.379 69.49-79.078 69.49-0.99429 0-2.017-0.18805-3.0028-0.21954v8.576c13.301 7.0454 22.272 19.897 22.272 34.525s-8.9708 27.48-22.272 34.525v15.393c13.301 7.0455 22.272 19.896 22.272 34.525 0 14.628-8.9708 27.48-22.272 34.525v15.393c13.301 7.0455 22.272 19.897 22.272 34.525s-8.9708 27.48-22.272 34.525v15.393c13.301 7.0455 22.272 19.897 22.272 34.525s-8.9708 27.48-22.272 34.525v15.393c13.301 7.0454 22.272 19.896 22.272 34.525 0 14.628-8.9708 27.48-22.272 34.525v9.016c0.98584-0.035278 2.0085-0.21936 3.0028-0.21936 43.699 0 79.078 31.089 79.078 69.49 0 3.4479-0.45004 6.8027-1.0008 10.116h1124.6c-0.55383-3.3127-0.75-6.6676-0.75-10.116 0-38.4 35.629-69.49 79.328-69.49 0.94067 0 1.8203 0.19141 2.7527 0.21936v-8.5762c-13.734-6.9514-23.023-20.05-23.023-34.965 0-14.914 9.2886-28.013 23.023-34.965v-14.514c-13.734-6.9515-23.023-20.05-23.023-34.965 0-14.914 9.2886-28.013 23.023-34.965v-14.514c-13.734-6.9515-23.023-20.05-23.023-34.965 0-14.914 9.2886-28.013 23.023-34.965v-14.514c-13.734-6.9514-23.023-20.05-23.023-34.965 0-14.914 9.2886-28.013 23.023-34.965v-14.513c-13.734-6.9514-23.023-20.051-23.023-34.965s9.2886-28.014 23.023-34.965v-8.1364c-0.93237 0.028076-1.812 0.21954-2.7527 0.21954-43.699 0-79.328-31.089-79.328-69.49 0-3.4478 0.19617-6.8028 0.75-10.116h-1124.6z" fill="#7e57c2" stroke="#0000bf" stroke-width="4"/>
  <g fill="#7e57c2">
   <path transform="rotate(.36208 688.89 404.27)" d="m126.46 112.68c0.55109 3.3128 1.001 6.6678 1.001 10.116 0 38.401-35.379 69.49-79.078 69.49-0.99445 0-2.0172-0.18799-3.003-0.21954v8.576c13.301 7.0454 22.272 19.897 22.272 34.525s-8.9708 27.48-22.272 34.525v15.393c13.301 7.0455 22.272 19.896 22.272 34.525 0 14.628-8.9708 27.48-22.272 34.525v15.393c13.301 7.0455 22.272 19.897 22.272 34.525s-8.9708 27.48-22.272 34.525v15.393c13.301 7.0455 22.272 19.897 22.272 34.525s-8.9708 27.48-22.272 34.525v15.393c13.301 7.0455 22.272 19.896 22.272 34.525 0 14.628-8.9708 27.48-22.272 34.525v9.0161c0.98584-0.035278 2.0085-0.21948 3.003-0.21948 43.699 0 79.078 31.09 79.078 69.49 0 3.4479-0.44989 6.8027-1.001 10.115h1124.6c-0.55469-3.3126-0.75012-6.6675-0.75012-10.115 0-38.4 35.629-69.49 79.328-69.49 0.94043 0 1.8203 0.19153 2.7528 0.21948v-8.5763c-13.734-6.9514-23.023-20.05-23.023-34.965 0-14.914 9.2881-28.014 23.023-34.965v-14.514c-13.734-6.9514-23.023-20.05-23.023-34.965 0-14.914 9.2881-28.013 23.023-34.965v-14.514c-13.734-6.9515-23.023-20.05-23.023-34.965 0-14.914 9.2881-28.013 23.023-34.965v-14.514c-13.734-6.9515-23.023-20.05-23.023-34.965 0-14.914 9.2881-28.013 23.023-34.965v-14.513c-13.734-6.9515-23.023-20.051-23.023-34.965s9.2881-28.014 23.023-34.965v-8.1364c-0.9325 0.028137-1.8124 0.21954-2.7528 0.21954-43.699 0-79.328-31.089-79.328-69.49 0-3.4478 0.19604-6.8029 0.75012-10.116h-1124.6z" opacity=".4" stroke="#0000bf" stroke-width="10"/>
   <path transform="rotate(.36208 738.51 406.67)" d="m1173.2 148.07c-18.317 0.26858-36.887 13.923-41.535 44.64-22.247 44.631-77.042-13.334-89.342-6.1555-2.8318 1.6472-3.3944 6.7016-0.7439 17.365 10.964 12.311 16.192 20.902 17.01 26.616-1.8883-0.36408-3.5762-0.46811-4.7561 0.21689-1.9606 1.1442-2.7686 4.0833-2.2512 9.2329-3.8758 1.2137-9.3668 1.3006-15.512 1.1011-6.3718 6.7016-16.501 13.386-23.527 20.452 6.0994 5.514 8.8862 13.837 10.266 24.188 37.986-3.9447 39.728 24.37 39.538 59.153-15.839 6.8752-33.71 2.1848-41.789-10.993 15.83-12.372 31.65-23.972 2.9952-40.903 0.47229 6.7102 0.79871 13.776 0.75305 21.336-17.772 7.7074-38.367 0.75436-44.539-16.273 0.38104-6.8316-0.43567-12.172-2.006-16.498-0.99835 0.2428-2.1242 0.55484-3.0045 0.88437-3.4763 16.204 10.801 38.008 22.773 58.268-4.4476 6.1554-14.486 9.9006-33.284 10.56 21.375 14.261 35.943 35.78 51.056 54.974 8.2233 8.0279 6.4443 17.833-0.75342 22.428-0.018127 0.034851-0.23608-0.025787-0.25427 0-0.027161 0.026093 0.036316 0.19952 0 0.22546-1.67 3.0518-4.157 6.3637-7.2521 9.8922-6.0087 17.079 6.426 33.031 26.023 35.623 4.9465-6.1815 9.2852-12.068 13.261-17.807 12.516 28.272-7.9874 29.676-29.027 31.887-0.19971 1.5605-0.090698 3.1038 0 4.6122 1.8336 1.4912 3.7394 3.0518 5.2552 4.8376-1.0894 0.4422-2.496 1.2051-3.7487 1.9854 3.5944 9.5626 13.08 17.01 25.768 18.692 22.782-28.454 39.747-52.564 6.0089-68.395 5.6005-9.1897 8.6774-17.478 7.2614-25.072 12.753-2.7916 28.718-2.5662 38.53-6.8144-13.778-17.391-30.279-22.628-42.787-19.134-4.847 1.3611-9.0857 4.0486-12.263 7.6986-4.2114-2.15-9.1583-4.3088-15.267-6.1554-0.10901-41.874 93.952 0.50284 60.559-60.913-5.7366-9.1378-8.1964-17.539-8.26-24.847 3.8032-2.7049 7.3884-6.5541 10.266-12.32 0.58093-3.8405 1.2614-7.4559 2.2508-10.776 13.334-7.6638 34.564-3.9013 51.047 19.134 23.036 12.718 28.355 2.5575 29.281-11.219-2.1148-3.0604-3.6489-6.5282-4.257-10.334-4.9832-4.248-8.4684-9.8573-9.2582-16.49 15.766-4.8377 31.269-9.1117 27.774-23.087-1.0077-1.2572-2.0513-2.6097-3.2494-3.9621-1.0074-1.0144-1.5974-2.0721-2.5052-3.0778 1.1258 0.14749 1.9425 0.26889 3.0046 0.44232-1.6068-2.9564-3.7213-6.2076-6.7534-9.9007-0.29932 1.3524-0.8075 2.6182-0.75342 4.1788-5.8815-8.2188-8.0507-15.987-7.7604-22.871-0.95288 2.1155-1.3524 4.3002-1.2432 7.0398-13.452-18.787-8.6686-35.832 4.7467-42.663 10.783-5.4877 27.03-4.0833 43.795 8.3576-2.968-25.055-22.183-39.646-41.535-39.36h-0.008789zm-195.44 133.48c-0.98956-2.7222-2.1242-4.9243-3.7579-6.8143 1.2617 2.2541 2.4235 4.543 3.7579 6.8143zm-599.58-128.21c-0.96216-0.008743-2.0604 0.095322-3.0044 0.22531-13.27 1.786-24.997 13.369-26.032 32.762 13.533-18.371 43.904 0.24283 63.064-0.87547-5.2009-20.694-18.199-30.933-31.278-31.887-0.97122-0.069366-1.7972-0.20798-2.7502-0.22531zm264.26 25.948c-0.47192-0.06076-1.0528 0.14735-1.5065 0.22546-3.3404 0.58081-6.0723 5.089-8.2506 15.831 4.5109 14.149 5.5641 23.165 4.2479 28.809 10.674 10.984 19.932 17.911 34.791-0.88437 1.5701 1.9854 2.9316 4.2741 4.2478 6.5976 26.295-7.7248 50.148 11.617 47.044 39.802 18.643-16.802 39.356-45.819 59.062-29.902 1.2527 5.2624 1.1528 12.007 0 19.35-16.973-6.7798-36.08-9.6753-55.304 10.993-1.734 1.864-3.2496 3.6152-4.5021 5.2798-1.0529 4.4908-2.7504 9.2938-5.2557 14.071 0.44507 4.4735 3.4766 7.8287 8.26 10.334 2.1511-1.9333 4.411-1.9074 7.0074 1.5433 5.2915-0.41623 10.991 0.034546 17.518 1.3177 20.032 3.9535 27.075 10.811 29.027 18.475 12.081-0.67612 21.747 2.0547 24.525 12.97-1.9879 4.1093-5.1647 8.4788-9.5125 12.978 8.7409-1.6819 17.836-4.6297 26.776-8.3576-15.785-16.611-47.035-38.892-3.0043-49.92 29.218-7.3173 43.032 4.6034 52.554 18.692 5.7181-5.453 10.12-10.88 12.507-15.83-10.52-41.432-118.79 35.814-91.838-35.624 8.4234-11.826 12.018-23.365 12.009-33.43-34.99 11.418-26.359-14.348-32.032-36.499-15.83-1.7427-34.773 6.3633-49.794 29.242-38.676 32.762-63.872-34.141-78.577-36.066zm572.56 11.435c-2.269 1.2397-4.783 2.5055-7.5065 3.5198 2.4597 0.87578 4.9471 1.968 7.5065 3.3032 0.11816-2.3495 0.12708-4.6122 0-6.8229zm-865.86 2.2021c0.090668 1.283 0.081573 2.4013 0.25412 3.7366 2.3962 38.597-18.607 32.65-40.536 27.275-8.2418 13.1-3.1408 28.948 12.008 36.941 36.207-20.244 64.226-38.042 28.274-67.952zm196.45 7.9153c-5.7545 7.768-6.9707 18.96-6.5079 31.445-11.926 9.3545-19.615 20.738-11.509 37.826 3.1406 0.91019 6.6713 1.9593 10.256 3.0777 10.139-14.34 21.203-27.812 17.019-40.019 3.3857-12.285 7.9874-13.368 13.77-8.5742 5.1644-3.8839 10.411-7.5599 15.766-9.9007-14.378-7.2565-28.718-13.889-38.794-13.854zm753.99 1.3178c-3.3404 0.07811-6.8439 1.1011-10.511 2.4188-5.4459 1.9767-11.01 4.855-16.764 8.3576 12.471 5.011 25.551 9.7446 39.538 9.0164 1.5156-4.5949 2.4594-8.7737 2.5049-12.536-4.1481-5.2104-9.1945-7.3604-14.768-7.2563zm-83.578 7.924c-13.606 5.0371-31.46 8.3315-38.04 18.25 12.199 2.5229 19.642 6.8837 23.772 12.536 0.28113-5.2885 1.8789-11.175 5.5094-18.258 2.7776-5.4185 5.6819-9.4152 8.7592-12.528zm-238.99 26.165c-2.95 0.052155-5.5096 0.4942-8.0057 0.87576-3.7306 5.982-4.3746 12.536 1.7517 20.235 6.2089-1.5433 11.664-2.2889 16.52-2.6356 0.2359-4.5949 1.9058-8.9904 5.001-12.536 1.5885-1.8119 3.4947-3.2599 5.7547-4.6208-7.4247-0.7544-14.74-1.4306-21.022-1.318zm-764.24 3.9621c-7.8603-0.077972-16.274 3.2164-25.532 11.21-11.636 10.057-12.498 17.946-7.7513 25.073 15.693-0.1561 29.753-4.8118 35.281-23.755 1.4068-4.8118 1.9425-8.7737 2.006-12.094-1.3616-0.19925-2.6142-0.42471-4.003-0.43344zm1001.5 25.289c2.1421 12.545-5.074 29-13.76 47.275-4.3112 0.26016-8.2233-0.086731-12.017-1.101 3.6306 1.1616 9.34 6.034 18.516 16.273 1.5977 2.1933 3.2859 3.9966 5.0105 5.7218 19.27-12.103 41.035-28.809 55.304-18.033-4.3296-26.711-35.19-35.624-53.053-50.136zm-42.796 34.739c0.38123 5.2018 0.17224 10.69-0.99854 16.715 1.3798 17.001 5.8364 24.57 12.263 26.607 0.93481-14.808-3.0497-33.456 4.7557-32.104-6.7439-2.02-12.317-6.0599-16.02-11.218zm-821.3 4.6209c-7.8876 1.4133-13.406 10.204-2.5052 30.569 30.997-14.773 18.144-29.754 6.0088-30.569-1.1801-0.078125-2.378-0.19937-3.5037 0zm231.97 10.776c-6.2086 0.2514-6.2903 26.988-23.019 25.723-0.69898 1.3524-1.4158 2.6268-2.2509 3.7452-0.7171-1.6646-1.5883-3.2511-2.5052-4.8377-4.5384-1.4911-9.9844-4.4994-16.765-10.117-0.18127-0.14737-0.3266-0.29471-0.49915-0.4422-4.6471 3.858-9.2764 10.005-13.515 20.452-4.8287 11.912-4.257 19.281-0.99829 24.188 7.606-4.7595 18.916-7.4817 33.783-6.5976-0.74438 2.9391-2.3417 6.1035-4.257 9.242 6.2808-1.6819 13.733-2.5055 22.519-1.9853-2.7141 10.742-15.712 23.217-20.014 35.19 2.6504 0.5722 7.1435 2.6961 13.007 5.7134 0.77161-0.10422 1.516-0.15625 2.2509-0.21674-0.12683-0.85843-0.19946-1.6906-0.24487-2.6444-2.7867-62.664 54.024-18.934 26.023-77.844-6.9979-14.721-10.783-19.68-13.515-19.567zm-416.41 43.097c-7.1797 0-13.098 5.6093-17.763 25.289-5.7364 24.206-0.21779 26.33 9.2581 23.529 2.4507-9.1118 12.971-16.204 24.026-23.972-4.1663-7.2824-5.1827-14.808-3.2584-21.544-4.3933-1.7858-8.5958-3.3032-12.263-3.3032zm496.49 20.452c-16.492 0.46811-34.401 30.517-9.0131 25.073 8.859-4.1701 19.497-16.178 12.262-24.847-1.0713-0.2514-2.1509-0.2514-3.2494-0.22546zm-175.42 14.738c0.20889 3.8666 0.35397 7.7938 0.75345 11.652-2.7321-0.97095-5.8272-2.1934-9.2582-3.9619-1.6156-0.82361-2.8863-1.76-4.2569-2.6356-1.6066 1.1531-3.2494 2.5749-5.0012 4.1788-43.005 39.213 9.1854 79.613-49.304 100.06-8.8406 3.0952-15.085 3.858-19.515 3.0778-0.98013 18.111-14.25 43.591 12.263 50.362 3.7305-4.6296 7.47-8.2708 11.01-11.218-3.0952-3.7019-4.6382-8.0627-4.7562-12.536-0.29956-11.531 9.9117-23.833 32.785-30.56 1.8788 9.4673-2.723 22.758-3.2584 34.297 8.6862 0.9364 16.819 5.8953 25.278 13.195 14.713-13.178 27.856-12.623 40.79-5.0544 0.15436-1.8293 0.3905-3.7713 0.74432-5.7132 2.705-14.851 9.567-19.229 18.026-18.917-1.4252-9.6059-0.64447-20.096 5.0013-32.329 0.03595-0.086853 0.2085-0.1214 0.24481-0.21686-5.083-2.8263-9.6484-8.5049-13.007-19.351-3.3218-10.698-3.5579-18.25-2.2508-23.746 0.23608 0.034668 0.50818 0.18204 0.74432 0.2167 31.26 4.0747 32.667-7.0744 30.035-17.816-4.0574-1.526-7.5337-3.2686-10.511-5.2712-28.074 29.581-32.276-28.714-56.556-27.708zm-260.75 41.996c-8.4775 4.1353-16.719 8.1407-25.024 9.4586-18.126 34.826-107.8 12.952-76.08 62.673 36.579 57.315 68.837-52.998 110.86-0.21686 13.796 17.322 11.754 32.754 5.2556 46.833-0.027252 0.15594 0.018158 0.29468 0 0.44202-0.30861 2.4363-0.47208 5.0804-0.49933 7.9154-1.4432 0.43347-2.9317 0.66766-4.2569 0.88422-14.595 24.561-36.306 44.865 2.0059 63.548 56.339 27.474 59.289-37.67 105.1-44.64 1.0348-9.0685-0.56271-15.181-4.502-19.134-25.496 4.4041-53.343 10.36-70.072 2.861-0.10898-0.83234-0.018158-1.7253 0-2.6357-2.8501 0.47687-5.6911 0.67627-8.5048 1.1011 2.5232-0.84094 5.2553-1.0317 8.5048-1.1011 5.1646-0.10388 11.173 0.61566 18.525 2.8611 20.332-0.41626 33.701-15.831 30.28-32.988-8.2418-2.1586-16.066-3.7799-23.527-5.2798 26.549-19.403 34.736-2.9736 43.795 13.854 7.1615-1.335 13.043-4.6901 17.264-9.2329-5.8271-6.3982-5.0828-11.878-1.4975-15.172 0.78961-0.73688 1.7336-1.2397 2.75-1.7598 1.7247-0.893 3.7033-1.318 5.7548-1.5433-0.054504-1.4305-0.20889-2.9304-0.49915-4.3954-37.931-9.9529-69.2-16.429-75.572 16.706-11.7-1.7426-21.548-1.6125-29.281 1.9852-5.7455-7.9153-10.239-18.475-15.766-25.731 1.9423-5.1238 3.4944-9.7966 3.2494-13.412-5.7636-1.0056-8.8043-2.4189-9.5033-4.3955-0.4174-1.1877 0.081741-2.6875 0.99834-4.1786-6.4623-0.91907-17.254 1.2483-33.783 7.031-12.39-0.77154-17.754-2.8524-18.77-5.7132-3.077-8.7304 34.854-26.13 42.796-46.625zm1012.5 0.8842c-0.96191-0.017334-1.8066 0.086731-2.75 0.21674-13.27 1.7947-24.997 13.369-26.023 32.771 1.6886-2.2974 3.5944-4.0313 5.7548-5.2798-4.7201 5.4966-7.9966 12.952-8.5143 22.645 0.97144-1.3092 2.1332-2.1242 3.2588-3.0778 0.09082 4.5516-0.39941 8.4268-0.99878 11.661-0.76208-0.67609-1.434-1.3003-2.26-1.9852 0.09082 1.283 0.081787 2.4014 0.25427 3.7452 0.10901 1.708-0.018066 3.2944 0 4.8376-6.2266 13.212-21.702 8.9992-37.786 5.0544-3.667 5.8347-4.5835 12.259-3.2587 18.25-7.4698 12.926-2.2963 28.254 12.517 36.066 27.158-15.18 49.631-28.93 44.04-47.501-0.009033-0.060608 0.018555-0.15607 0-0.21655 6.2903-9.5714 5.3101-20.192-7.7513-32.988 15.303-6.2421 39.112 6.2162 55.05 5.2799-1.8971-7.5601-4.901-13.646-8.5048-18.475 3.9575 0.73688 7.8422 1.3005 11.255 1.101-5.201-20.694-18.199-30.924-31.278-31.887-0.96216-0.069244-2.0419-0.20813-3.0043-0.21674zm-894.12 3.2944c-37.105-0.64142-12.771 31.861-9.0132 48.602 7.688 1.6385 16.991 1.8899 27.774-0.21674 11.8-1.6819 19.851-1.5606 25.533 0-2.1784-18.354-0.67175-44.484-38.54-47.943-2.0967-0.19061-3.9574-0.40735-5.7546-0.44217zm274.51 2.4189c3.3222 6.0513 6.2993 12.97 9.013 20.677 1.9244-14.079-2.1418-19.151-9.013-20.677zm282.28 16.056c-14.314 8.3228-26.712 18.96-38.793 29.685 8.3325 2.8265 15.802 8.6262 20.023 16.056 16.474 19.307 37.913-9.606 32.531-25.073-3.3585-7.0831-8.7224-13.837-13.76-20.668zm-270.02 7.0398c-0.79883 0.22531-1.5522 0.45078-2.2508 0.87549 0.75342 2.2022 1.5065 4.3262 2.2508 6.5977-11.672 9.4586-27.892 10.291-39.792 2.6355 1.4433 4.7162 4.384 10.109 9.5125 16.715 5.827 2.5055 11.146 3.2078 15.766-0.65906 0.51727 4.6124 2.8046 7.9329 7.5062 7.9155 6.1267-10.074 30.643-20.842 28.528-27.266-7.4792-1.4566-13.788-6.1122-21.521-6.8143zm727.72 5.2712c-2.6411 0.31201-5.2825 0.78015-7.7605 1.3264 0.4447 0.65015 0.75342 1.2918 1.2526 1.9766 2.596-1.0751 4.584-2.202 6.5079-3.303zm-423.92 31.453c-8.6319 0.28626-42.86 2.1762-24.28 13.412 20.441 5.9908 1.4615 18.085-0.99829 27.483 2.2781 1.7772 4.7107 3.4244 7.2522 4.8377 6.1083-1.0752 12.653 0.78015 18.525 7.4818 0.072693 0.086731 0.17261 0.13 0.24524 0.21674 7.0527 2.1847 14.214 4.1614 21.276 6.1554 5.9815-2.4882 10.166-8.3836 9.0043-16.49 0.026917-6.1208 0.17218-12.415 0.25397-18.692-16.574-0.69342-11.346-26.165-31.287-24.405h0.009033zm151.64 1.0925c-1.5706 0.008606-3.059 0.25122-4.5022 0.65888-9.004 2.5835-13.86 12.796 7.7605 30.127 19.47-21.024 7.7152-30.846-3.2583-30.786zm-375.62 11.218c-2.3148 8.1668-6.6894 18.77-5.7547 25.731-3.8486 2.3755-8.0874 0.87561-11.509-2.6441-5.6912 24.526-79.992-14.14-67.068 36.066 0.82611 3.2163 1.8425 6.2334 3.0047 9.0164 13.279-7.0138 22.918-23.165 40.037-18.475 19.578 8.0626 25.532 31.54 14.514 47.284-2.0148 4.3263-4.8651 8.6089-7.7607 12.97 16.211 9.0423 29.681 18.458 28.029 40.686 6.0723-0.5202 11.799-2.7308 16.265-7.0398 13.642-11.539 23.744-30.916 45.801-30.127 21.412-2.1327 38.267 14.868 29.526 32.771 2.0512 8.8343 5.555-13.377 16.02-6.5976 7.7607 2.046 23.445 5.193 10.257-4.179-11.346-14.504-27.457-27.873-32.286-45.299 8.1332-6.4848 31.65-7.0396 18.771-22.212-1.6882-3.9447-1.6155-6.4155-0.49945-7.6985-6.998-3.8148-15.285-5.6787-23.771-4.3956-22.528 6.2421-10.511 35.858-30.28 44.856-15.557 4.1182-41.516-9.9787-30.779-25.289 7.5606-6.3202 13.751-13.594 19.016-21.327-5.0739-3.1038-10.057-6.5456-12.762-8.1407-13.053-9.4933 13.152-24.24-2.006-36.499-4.7837-5.3491-10.529-8.2101-16.764-9.4586zm129.12 1.5433c-1.6882 6.8229-2.0511 14.071-2.2506 21.327 12.326 0.5116 32.785 1.4391 21.021-9.4584-3.7759-4.4563-11.754-8.0021-18.771-11.869zm-79.076 8.1321c-1.3884 0.10394-2.7955 0.37268-4.2569 0.65881-15.076 4.6816-9.7211 15.449-4.2479 26.174 1.6794-3.6674 3.1678-7.4819 4.5021-11.219 2.2963-5.1585 5.4456-10.456 9.2582-15.397-1.7248-0.15613-3.4218-0.34674-5.2556-0.21661zm337.33 23.312c-1.5701 0.008606-3.0587 0.2428-4.5017 0.65894-9.0043 2.5748-13.86 12.788 7.7513 30.127 19.469-21.032 7.7244-30.846-3.2496-30.786zm-613.1 7.2565c-1.8608 0.008606-3.8576 0.27753-6.0087 0.4422 5.1464 4.9677 10.411 10.143 15.766 16.047-2.9408 5.5662-7.6787 9.8922-13.016 12.753 16.828 21.284 19.687 52.521 52.3 25.29 2.9045-2.419 5.3733-4.9504 7.5153-7.2565-3.3037-4.621-7.3431-9.2419-11.264-14.071-3.7214 1.4912-7.6609 2.5142-11.763 2.6355-0.49915-1.2743-0.82611-2.6962-0.99829-3.7366-2.3781 0.77173-4.6111 1.9508-6.7622 3.0779-1.67-0.34692-3.6033-0.711-5.2556-1.3179 3.295-17.209 7.3525-33.994-20.513-33.864zm-61.812 10.334c-2.5597 0.14746-5.2373 0.80621-8.0057 1.9767-17.073 4.9676-35.154 9.5626-51.8 16.273 0.42648 0.078125 0.80774 0.13861 1.2435 0.22546 67.385 13.299-11.128 59.976 57.809 56.508 1.7065-0.086731 3.2857-0.29486 4.7561-0.43347 2.3237-3.2944 6.8892-6.7624 14.26-10.334 0.33591-0.16498 0.67172-0.28626 1.0076-0.4422-6.9799-16.342-62.91-45.914-10.012-59.153 1.1254-0.28607 2.1693-0.43341 3.2492-0.65888-3.0859-2.6007-7.5153-4.2394-12.507-3.9619zm474.22 15.389c-9.5212 11.27-7.2246 27.882-10.266 41.345-1.1617 7.8026-6.6441 13.629-14.014 17.157 3.2586 0.66748 6.8801-0.30347 11.264-4.621 6.2902-9.5712 20.622-11.426 27.53-10.334-0.55402-15.241-13.343-28.332-14.514-43.547zm313.81 7.6987c-6.5173 0.91016-11.782 6.8142-8.0148 19.576-5.001 3.6413-6.644 12.224 2.006 28.367 21.312-10.152 21.929-20.27 16.265-25.948 12.308-11.453 2.2239-21.336-7.5062-21.995-0.96228-0.060791-1.8246-0.13019-2.7502 0z" filter="url(#a)" opacity=".25"/>
  </g>
  <g transform="rotate(.36208 684.94 396.05)" opacity=".567" stroke-width="7">
   <path d="m189.08 171.53v449.05h3.2533l3.2531-5.7175v-437.61h978.71l6.5063-2.8587v-2.8588h-991.72z" opacity=".8"/>
   <path d="m1180.8 620.58v-449.05h-3.2532l-3.2532 5.7175v437.61h-978.71l-6.5063 2.8586v2.8588h991.72z" fill="#7e57c2" opacity=".8"/>
  </g>
  <path transform="rotate(.36208 697.47 118.55)" d="m135.16 114.58c0.55113 1.7067 1.0012 3.4348 1.0012 5.2107 0 0.89844-0.10745 1.8374-0.24989 2.7188h1123.4c-0.1449-0.88264-0.24951-1.8191-0.24951-2.7188 0-1.7759 0.19678-3.504 0.75-5.2107h-1124.6z" fill="#7e57c2" opacity=".714" stroke-width="2"/>
  <path transform="rotate(.36208 693.82 695.56)" d="m131.52 691.6c0.55112 1.7064 1.0012 3.4348 1.0012 5.2108 0 0.89801-0.10747 1.8373-0.24991 2.7188h1123.4c-0.1449-0.88269-0.24951-1.8194-0.24951-2.7188 0-1.7761 0.19678-3.5044 0.75-5.2108h-1124.6z" fill="#7e57c2" opacity=".714"/>
 </g>
</svg>
