<?xml version="1.0"?>
<svg width="500" height="500" xmlns="http://www.w3.org/2000/svg" xmlns:svg="http://www.w3.org/2000/svg">
 <g class="layer">
  <title>Layer 1</title>
  <g id="freepik--background-complete--inject-48">
   <rect fill="#ebebeb" height="215.15" id="svg_1" width="119.77" x="33.28" y="55.87"/>
   <rect fill="#fafafa" height="202.5" id="svg_2" width="108.96" x="38.07" y="62.11"/>
   <polygon fill="#e0e0e0" id="svg_3" points="158.11 272.96 153.05 271.02 153.05 52.22 158.11 52.22 158.11 272.96"/>
   <path d="m64.78,192.92l28.3,-26.31c3.58,-3.33 8.27,-6.92 12.88,-5.28c2.22,0.79 3.89,2.69 6.06,3.59c4.35,1.81 9.31,-0.8 12.65,-4.11s6,-7.47 10,-9.87s10.33,-2.1 12.33,2.16l0,28.63l-41.13,17.6l-41.09,-6.41z" fill="#f5f5f5" id="svg_4"/>
   <path d="m38.07,176.46c10.43,-4.24 20.83,-0.63 28.29,7.8c1.58,1.77 3,3.82 5.16,4.8c2.93,1.33 6.3,0.33 9.49,0a23.88,23.88 0 0 1 22.45,10.88l-34.82,17.06l-30.57,-0.23l0,-40.31z" fill="#e0e0e0" id="svg_5"/>
   <path d="m147,176.61c-6.87,-3.32 -12.91,0.69 -19.25,4.94s-12.23,9.69 -19.66,11.4c-5,1.14 -10.29,0.51 -15.09,2.22c-9.78,3.48 -15.43,15.9 -25.8,16.49c-5.63,0.32 -10.67,-3.09 -15.7,-5.65s-9,-5 -13.46,-1.56l0,60.16l108.96,0l0,-88z" fill="#ebebeb" id="svg_6"/>
   <rect fill="#e0e0e0" height="2.16" id="svg_7" width="111.33" x="38.07" y="120.36"/>
   <rect fill="#e0e0e0" height="2.16" id="svg_8" width="111.33" x="38.07" y="168.59"/>
   <rect fill="#e0e0e0" height="2.16" id="svg_9" width="111.33" x="38.07" y="216.81"/>
   <rect fill="#e0e0e0" height="5.51" id="svg_10" transform="translate(-103.35 288.45) rotate(-90)" width="148.91" x="18.09" y="193.15"/>
   <rect fill="#e0e0e0" height="59.33" id="svg_11" width="2.49" x="59.05" y="62.11"/>
   <rect fill="#e0e0e0" height="59.33" id="svg_12" width="2.49" x="80.56" y="62.11"/>
   <rect fill="#e0e0e0" height="59.33" id="svg_13" width="2.49" x="102.07" y="62.11"/>
   <rect fill="#e0e0e0" height="59.33" id="svg_14" width="2.49" x="123.58" y="62.11"/>
   <rect fill="#e0e0e0" height="220.13" id="svg_15" width="5.07" x="28.22" y="52.22"/>
   <rect fill="#e0e0e0" height="5.87" id="svg_16" width="129.9" x="28.22" y="50"/>
   <rect fill="#e0e0e0" height="5.47" id="svg_17" width="136.92" x="24.62" y="273.69"/>
   <polygon fill="#ebebeb" id="svg_18" points="153.05 271.02 161.54 273.69 24.62 273.69 33.28 271.02 153.05 271.02"/>
   <path d="m50.41,389.81a19.51,19.51 0 0 0 -12.09,-1.47c-2.2,0.36 -4.48,1 -6,2.67s-1.77,4.55 -0.06,6a5.73,5.73 0 0 0 3.77,1c3.2,0 6.74,-0.6 9.3,1.32c1.45,1.1 2.42,2.92 4.17,3.46a4.11,4.11 0 0 0 4.53,-2a7.07,7.07 0 0 0 0.51,-5.2a7.91,7.91 0 0 0 -4.13,-5.78z" fill="#ebebeb" id="svg_19"/>
   <path d="m58.84,373.54c-2.25,3.22 -6.62,2.15 -8.65,0.19s-2.88,-4.8 -3.66,-7.51c-1.78,-6.19 -3.58,-12.69 -2.26,-19a10.56,10.56 0 0 1 2.43,-5.16a5.51,5.51 0 0 1 5.22,-1.74c2.21,0.58 3.58,2.74 4.57,4.8a45.22,45.22 0 0 1 4.51,19.43c0,3.13 -0.36,6.41 -2.12,9" fill="#ebebeb" id="svg_20"/>
   <path d="m65,378.15c-2.45,-2.9 -2.91,-7.12 -1.82,-10.75a20.69,20.69 0 0 1 6.37,-9.25a34.36,34.36 0 0 1 11.45,-6.73a12.1,12.1 0 0 1 5.13,-0.87a5.38,5.38 0 0 1 4.3,2.61c1.2,2.29 0,5.06 -1.19,7.33a87,87 0 0 1 -7.5,11.41c-2.24,2.9 -4.81,5.75 -8.24,7.06s-7,1.16 -8.79,-1.22" fill="#ebebeb" id="svg_21"/>
   <path d="m59,422a7,7 0 0 1 -0.2,-1.46c-0.11,-1.06 -0.24,-2.39 -0.39,-4a57.37,57.37 0 0 0 -0.9,-5.84a44.83,44.83 0 0 0 -2.12,-6.9a25.38,25.38 0 0 0 -3.52,-6.24a13.18,13.18 0 0 0 -4.45,-3.7a12.31,12.31 0 0 0 -3.75,-1.17a7.54,7.54 0 0 1 -1.46,-0.21a6.75,6.75 0 0 1 1.48,0a11.32,11.32 0 0 1 3.91,1a13.12,13.12 0 0 1 4.7,3.74a24.74,24.74 0 0 1 3.65,6.36a43,43 0 0 1 2.11,7a49.23,49.23 0 0 1 0.77,5.92c0.13,1.69 0.18,3.06 0.2,4a7,7 0 0 1 -0.03,1.5z" fill="#e0e0e0" id="svg_22"/>
   <path d="m58.72,418.94a2.6,2.6 0 0 1 0,-0.68l0,-1.94c0,-1.68 0,-4.11 -0.08,-7.11c-0.15,-6 -0.67,-12.48 -1.67,-21.59c-1,-8.57 -2.22,-18.55 -3.55,-25c-0.29,-1.48 -0.58,-2.81 -0.85,-4s-0.49,-2.17 -0.7,-3s-0.33,-1.39 -0.45,-1.88a2.87,2.87 0 0 1 -0.12,-0.67a2.58,2.58 0 0 1 0.23,0.63l0.57,1.86c0.25,0.8 0.5,1.8 0.79,3s0.63,2.48 0.94,4a218.9,218.9 0 0 1 3.74,23.22c1,9.14 1.45,17.46 1.49,23.48c0,3 0,5.45 -0.1,7.13c-0.05,0.79 -0.09,1.43 -0.12,1.93a3.63,3.63 0 0 1 -0.12,0.62z" fill="#e0e0e0" id="svg_23"/>
   <path d="m58.68,402.9a11.32,11.32 0 0 1 0,-2a53.57,53.57 0 0 1 0.62,-5.48a73.35,73.35 0 0 1 1.78,-8a66.09,66.09 0 0 1 3.35,-9.42a50.45,50.45 0 0 1 9.81,-15.27a24.19,24.19 0 0 1 2.31,-2.14c0.35,-0.3 0.67,-0.6 1,-0.84l0.9,-0.62a15.41,15.41 0 0 1 1.7,-1.09a62.59,62.59 0 0 0 -5.58,5a52.78,52.78 0 0 0 -9.57,15.15a72.46,72.46 0 0 0 -3.36,9.37a80.14,80.14 0 0 0 -1.9,7.9c-0.42,2.28 -0.66,4.14 -0.81,5.43a14.36,14.36 0 0 1 -0.25,2.01z" fill="#e0e0e0" id="svg_24"/>
   <polygon fill="#e0e0e0" id="svg_25" points="74.18 431.19 72.57 453.21 44.28 453.21 42.68 431.19 74.18 431.19"/>
   <rect fill="#e0e0e0" height="8.68" id="svg_26" width="37.61" x="39.3" y="422.51"/>
   <polygon fill="#ebebeb" id="svg_27" points="76.91 452.37 76.91 454.78 75.15 454.78 39.92 454.78 39.92 452.37 76.91 452.37"/>
   <polygon fill="#e0e0e0" id="svg_28" points="73.41 459.01 75.15 454.78 41.27 454.78 43.29 459.01 73.41 459.01"/>
   <path d="m43.2,438.39s0,0.07 0.13,0.2s0.25,0.34 0.43,0.56l1.64,2.11l0.08,0.1l0.07,-0.1l4.05,-5.6l-0.24,0c1.21,1.7 2.55,3.6 4,5.64l0.13,0.18l0.13,-0.17l4.73,-5.62l-0.27,0l0.26,0.33l4.23,5.3l0.14,0.18l0.13,-0.19l4,-5.64l-0.24,0l4.92,5.6l0.08,0.1l0.07,-0.11l1.54,-2.59l0.39,-0.69a0.81,0.81 0 0 0 0.12,-0.24a1.37,1.37 0 0 0 -0.16,0.22l-0.44,0.66l-1.61,2.54l0.15,0l-4.83,-5.66l-0.12,-0.14l-0.11,0.15l-4,5.62l0.27,0l-4.21,-5.31l-0.26,-0.32l-0.14,-0.17l-0.14,0.16l-4.71,5.64l0.26,0l-4,-5.62l-0.12,-0.16l-0.12,0.16l-4,5.66l0.14,0l-1.71,-2.06l-0.46,-0.53a0.72,0.72 0 0 0 -0.2,-0.19z" fill="#f5f5f5" id="svg_29"/>
   <path d="m42.28,431.05c0,0.1 7.09,0.17 15.83,0.17s15.89,-0.07 15.89,-0.17s-7.09,-0.18 -15.84,-0.18s-15.88,0.13 -15.88,0.18z" fill="#f5f5f5" id="svg_30"/>
   <path d="m40.85,455c0,0.09 7.71,0.17 17.21,0.17s17.2,-0.08 17.2,-0.17s-7.7,-0.18 -17.2,-0.18s-17.21,0.1 -17.21,0.18z" fill="#f5f5f5" id="svg_31"/>
  </g>
  <g id="freepik--Floor--inject-48">
   <path d="m478.2,459c0,0.15 -101.37,0.26 -226.39,0.26s-226.41,-0.1 -226.41,-0.26s101.35,-0.26 226.41,-0.26s226.39,0.13 226.39,0.26z" fill="#263238" id="svg_32"/>
  </g>
  <g id="freepik--Device--inject-48">
   <rect fill="#455a64" height="408.41" id="svg_33" rx="11.55" width="284.59" x="175.13" y="50.41"/>
   <rect fill="#fff" height="341.07" id="svg_34" width="266.64" x="183.96" y="79.55"/>
   <circle cx="317.42" cy="438.3" fill="#263238" id="svg_35" r="10.92" transform="translate(-216.95 352.82) rotate(-45)"/>
   <rect fill="#263238" height="4.51" id="svg_36" rx="1.22" width="85.71" x="274.56" y="62.17"/>
   <circle cx="307.49" cy="395.89" fill="#263238" id="svg_37" r="2.47"/>
   <path d="m319.89,395.89a2.47,2.47 0 1 1 -2.47,-2.47a2.47,2.47 0 0 1 2.47,2.47z" fill="#263238" id="svg_38"/>
   <path d="m329.81,395.89a2.47,2.47 0 1 1 -2.46,-2.47a2.46,2.46 0 0 1 2.46,2.47z" fill="#263238" id="svg_39"/>
   <path d="m219.86,108.13l-12.56,0a0.48,0.48 0 1 1 0,-0.95l12.56,0a0.48,0.48 0 1 1 0,0.95z" fill="#263238" id="svg_40"/>
   <path d="m212.18,112.14a0.49,0.49 0 0 1 -0.28,-0.09l-5.64,-4a0.47,0.47 0 0 1 0,-0.78l5.81,-4a0.48,0.48 0 0 1 0.66,0.13a0.47,0.47 0 0 1 -0.13,0.66l-5.24,3.58l5.08,3.62a0.47,0.47 0 0 1 0.12,0.66a0.49,0.49 0 0 1 -0.38,0.22z" fill="#263238" id="svg_41"/>
   <path d="m422.67,108.18l-12.56,0a0.48,0.48 0 0 1 0,-1l12.56,0a0.48,0.48 0 1 1 0,1z" fill="#263238" id="svg_42"/>
   <path d="m417.63,112.14a0.49,0.49 0 0 1 -0.4,-0.21a0.48,0.48 0 0 1 0.13,-0.66l5.24,-3.58l-5.08,-3.61a0.48,0.48 0 0 1 -0.12,-0.67a0.49,0.49 0 0 1 0.67,-0.11l5.64,4a0.47,0.47 0 0 1 0.2,0.39a0.46,0.46 0 0 1 -0.21,0.39l-5.8,4a0.56,0.56 0 0 1 -0.27,0.06z" fill="#263238" id="svg_43"/>
   <path d="m303.69,108.61l0,1.33l-5.53,0l0,-7.14l5.4,0l0,1.33l-3.75,0l0,1.55l3.31,0l0,1.32l-3.31,0l0,1.65l3.88,-0.04z" fill="#263238" id="svg_44"/>
   <path d="m311.76,102.8l-3.09,7.14l-1.67,0l-3,-7.14l1.78,0l2.17,5.1l2.2,-5.1l1.61,0z" fill="#263238" id="svg_45"/>
   <path d="m317.88,108.61l0,1.33l-5.52,0l0,-7.14l5.39,0l0,1.33l-3.75,0l0,1.55l3.31,0l0,1.32l-3.31,0l0,1.65l3.88,-0.04z" fill="#263238" id="svg_46"/>
   <path d="m325.74,102.8l0,7.14l-1.35,0l-3.56,-4.33l0,4.33l-1.63,0l0,-7.14l1.36,0l3.55,4.34l0,-4.34l1.63,0z" fill="#263238" id="svg_47"/>
   <path d="m328.91,104.15l-2.28,0l0,-1.35l6.22,0l0,1.35l-2.28,0l0,5.79l-1.66,0l0,-5.79z" fill="#263238" id="svg_48"/>
   <path d="m333.12,109.24l0.57,-1.25a4.16,4.16 0 0 0 2.35,0.75c1,0 1.38,-0.33 1.38,-0.77c0,-1.33 -4.15,-0.42 -4.15,-3.07c0,-1.21 1,-2.22 3,-2.22a4.86,4.86 0 0 1 2.48,0.63l-0.51,1.26a4,4 0 0 0 -2,-0.56c-1,0 -1.35,0.36 -1.35,0.81c0,1.32 4.15,0.41 4.15,3c0,1.19 -1,2.21 -3,2.21a5.12,5.12 0 0 1 -2.92,-0.79z" fill="#263238" id="svg_49"/>
   <rect fill="#f5f5f5" height="61.67" id="svg_50" width="170.38" x="262.5" y="134.84"/>
   <path d="m304.14,148.65l0.52,-1.16a4,4 0 0 0 2.21,0.69c0.92,0 1.3,-0.3 1.3,-0.71c0,-1.26 -3.9,-0.4 -3.9,-2.88c0,-1.14 0.92,-2.09 2.83,-2.09a4.5,4.5 0 0 1 2.32,0.59l-0.48,1.18a3.81,3.81 0 0 0 -1.85,-0.53c-0.92,0 -1.28,0.35 -1.28,0.77c0,1.23 3.9,0.38 3.9,2.84c0,1.12 -0.93,2.08 -2.85,2.08a4.74,4.74 0 0 1 -2.72,-0.78z" fill="#263238" id="svg_51"/>
   <path d="m316.58,145.05c0,1.49 -1.12,2.42 -2.91,2.42l-1.35,0l0,1.84l-1.55,0l0,-6.69l2.9,0c1.79,0 2.91,0.92 2.91,2.43zm-1.57,0c0,-0.74 -0.48,-1.17 -1.43,-1.17l-1.26,0l0,2.32l1.26,0c0.95,0 1.42,-0.43 1.42,-1.15l0.01,0z" fill="#263238" id="svg_52"/>
   <path d="m317.36,146a3.67,3.67 0 1 1 3.66,3.47a3.46,3.46 0 0 1 -3.66,-3.47zm5.76,0a2.1,2.1 0 1 0 -2.1,2.15a2,2 0 0 0 2.1,-2.15z" fill="#263238" id="svg_53"/>
   <path d="m330.12,149.31l-1.29,-1.86l-1.43,0l0,1.86l-1.54,0l0,-6.69l2.89,0c1.79,0 2.91,0.92 2.91,2.43a2.16,2.16 0 0 1 -1.38,2.11l1.51,2.15l-1.67,0zm-1.45,-5.43l-1.27,0l0,2.33l1.27,0c0.94,0 1.42,-0.44 1.42,-1.16s-0.48,-1.17 -1.42,-1.17z" fill="#263238" id="svg_54"/>
   <path d="m334.18,143.88l-2.18,0l0,-1.26l5.83,0l0,1.26l-2.14,0l0,5.43l-1.55,0l0.04,-5.43z" fill="#263238" id="svg_55"/>
   <path d="m338.71,142.62l1.55,0l0,6.69l-1.55,0l0,-6.69z" fill="#263238" id="svg_56"/>
   <path d="m348,142.62l0,6.69l-1.27,0l-3.34,-4.06l0,4.06l-1.53,0l0,-6.69l1.28,0l3.33,4.06l0,-4.06l1.53,0z" fill="#263238" id="svg_57"/>
   <path d="m354.11,145.86l1.41,0l0,2.72a4.63,4.63 0 0 1 -2.7,0.85a3.47,3.47 0 1 1 0,-6.93a3.56,3.56 0 0 1 2.8,1.16l-1,0.92a2.24,2.24 0 0 0 -1.73,-0.76a2.15,2.15 0 1 0 0,4.29a2.48,2.48 0 0 0 1.21,-0.29l0.01,-1.96z" fill="#263238" id="svg_58"/>
   <path d="m364.33,148.74l0,0.57l-4.43,0l0,-6.31l4.3,0l0,0.58l-3.64,0l0,2.23l3.24,0l0,0.56l-3.24,0l0,2.33l3.77,0.04z" fill="#263238" id="svg_59"/>
   <path d="m371,143l-2.77,6.27l-0.66,0l-2.76,-6.27l0.71,0l2.4,5.45l2.42,-5.45l0.66,0z" fill="#263238" id="svg_60"/>
   <path d="m376.35,148.74l0,0.57l-4.43,0l0,-6.31l4.3,0l0,0.58l-3.64,0l0,2.23l3.24,0l0,0.56l-3.24,0l0,2.33l3.77,0.04z" fill="#263238" id="svg_61"/>
   <path d="m383.15,143l0,6.27l-0.55,0l-4,-5.08l0,5.08l-0.66,0l0,-6.27l0.55,0l4,5.09l0,-5.09l0.66,0z" fill="#263238" id="svg_62"/>
   <path d="m386.41,143.62l-2.2,0l0,-0.62l5.07,0l0,0.58l-2.21,0l0,5.69l-0.66,0l0,-5.65z" fill="#263238" id="svg_63"/>
   <path d="m436.8,199.78l-231.24,0l0,-69.66l231.24,0l0,69.66zm-230.24,-1l229.24,0l0,-67.66l-229.24,0l0,67.66z" fill="#263238" id="svg_64"/>
   <path d="m237.19,157.61l-10.79,0a1.88,1.88 0 0 1 -1.88,-1.87l0,-9.66a1.88,1.88 0 0 1 1.88,-1.87l10.79,0a1.87,1.87 0 0 1 1.87,1.87l0,9.66a1.87,1.87 0 0 1 -1.87,1.87zm-10.79,-12.45a0.92,0.92 0 0 0 -0.92,0.92l0,9.66a0.92,0.92 0 0 0 0.92,0.92l10.79,0a0.92,0.92 0 0 0 0.92,-0.92l0,-9.66a0.92,0.92 0 0 0 -0.92,-0.92l-10.79,0z" fill="#7E57C2" id="svg_65"/>
   <rect fill="#7E57C2" height="4.04" id="svg_66" rx="1.03" width="2.17" x="226.77" y="141.72"/>
   <rect fill="#7E57C2" height="4.04" id="svg_67" rx="1.03" width="2.17" x="234.21" y="141.72"/>
   <rect fill="#7E57C2" height="2.17" id="svg_68" width="2.17" x="228.41" y="148.07"/>
   <rect fill="#7E57C2" height="2.17" id="svg_69" width="2.17" x="232.73" y="148.07"/>
   <rect fill="#7E57C2" height="2.17" id="svg_70" width="2.17" x="228.41" y="152.17"/>
   <rect fill="#7E57C2" height="2.17" id="svg_71" width="2.17" x="232.73" y="152.17"/>
   <path d="m228.22,166.81l0,12.93l-3,0l0,-10.53l-2.58,0l0,-2.4l5.58,0z" fill="#263238" id="svg_72"/>
   <path d="m240.13,177.31l0,2.43l-9.77,0l0,-1.94l5,-4.71c1.14,-1.09 1.35,-1.75 1.35,-2.38c0,-1 -0.71,-1.61 -2.07,-1.61a3.18,3.18 0 0 0 -2.68,1.29l-2.18,-1.4a6,6 0 0 1 5.13,-2.4c2.89,0 4.81,1.48 4.81,3.82c0,1.26 -0.35,2.4 -2.16,4.09l-3,2.81l5.57,0z" fill="#263238" id="svg_73"/>
   <path d="m243.72,183.74c0,0.15 -5.82,0.26 -13,0.26s-13,-0.11 -13,-0.26s5.82,-0.26 13,-0.26s13,0.12 13,0.26z" fill="#263238" id="svg_74"/>
   <path d="m241.21,187.62a67.8,67.8 0 0 1 -8.33,0.26a68,68 0 0 1 -8.34,-0.26a65.73,65.73 0 0 1 8.34,-0.26a65.5,65.5 0 0 1 8.33,0.26z" fill="#263238" id="svg_75"/>
   <path d="m259.89,196.52c-0.14,0 -0.26,-13.81 -0.26,-30.84s0.12,-30.84 0.26,-30.84s0.26,13.81 0.26,30.84s-0.15,30.84 -0.26,30.84z" fill="#263238" id="svg_76"/>
   <path d="m262.5,195.43c38,-41.59 121.94,-16.75 121.94,-16.75l-1.37,-9.22c-69.7,-24.14 -120.57,-18.88 -120.57,-18.88l0,44.85z" fill="#e0e0e0" id="svg_77"/>
   <path d="m382.54,190.33c0,0.15 -23.12,0.26 -51.63,0.26s-51.64,-0.11 -51.64,-0.26s23.11,-0.26 51.64,-0.26s51.63,0.12 51.63,0.26z" fill="#263238" id="svg_78"/>
   <circle cx="405.19" cy="169.7" fill="#455a64" id="svg_79" r="23.9" transform="translate(127.92 510.43) rotate(-73.59)"/>
   <path d="m390.59,183.69a16.52,16.52 0 0 0 -4.1,0.31a32.62,32.62 0 0 0 8.22,-0.1a17.2,17.2 0 0 0 -4.12,-0.21z" fill="#263238" id="svg_80"/>
   <path d="m424.64,173.72c-0.65,-0.87 -1.91,-2.43 -3.42,-4.19a48.06,48.06 0 0 0 -4.22,-4.53l1.18,-7.46a28.78,28.78 0 0 0 2.93,-0.78a12,12 0 0 0 3.24,-1.29a12.63,12.63 0 0 0 -3.4,0.8c-1.14,0.36 -2.14,0.72 -2.72,1l0,-0.07l-8.23,-4.2l0,0a18.37,18.37 0 0 0 -1.48,-2.08a16.47,16.47 0 0 0 -2.8,-2.76l2.28,-2.16s-1.59,-0.46 -5.63,0s-3.86,2.12 -3.86,2.12l6.92,0.15c0.46,0.53 1.53,1.62 2.66,3c0.61,0.75 1.14,1.47 1.57,2.06l-6.1,6.11a39.68,39.68 0 0 0 -4.23,0.36a22.57,22.57 0 0 0 -4.8,0.87a24.12,24.12 0 0 0 4.86,-0.36c1.82,-0.23 3.38,-0.47 4.19,-0.63l4,7.79l-0.55,0.84c-0.67,1.06 -1.54,2.56 -2.4,4.27s-1.47,3.1 -1.92,4.24l-6.34,-0.65c-0.31,-0.73 -0.67,-1.55 -1.06,-2.43c-0.87,-1.93 -1.67,-3.56 -2.12,-4.38l1.37,-8.69l-5.85,-4.67c0.61,-0.34 2.63,-1.85 5,-3.73a39.69,39.69 0 0 0 4.86,-4.2a41.72,41.72 0 0 0 -5.18,3.8c-2.39,1.9 -4.32,3.56 -4.76,4l-0.28,-0.22l-5.8,5.86l2.93,8.52c-0.28,0.59 -0.83,2.11 -1.49,3.89a26.06,26.06 0 0 0 -1.42,4.26a16,16 0 0 0 1.9,-4.08a25.94,25.94 0 0 0 1.19,-4l7.33,-0.55c0.34,0.92 1,2.52 1.82,4.32c0.4,0.88 0.77,1.68 1.11,2.39l-1.2,7.59l7.09,5.64l0,0a15.25,15.25 0 0 0 1.55,2.19a8.41,8.41 0 0 0 2,2.09a8.3,8.3 0 0 0 -1.61,-2.41a15.52,15.52 0 0 0 -1.8,-2l5.45,-4.19l-3.62,-8.31l-0.73,-0.07c0.52,-1.1 1.19,-2.51 2,-4.06c1.08,-2.13 2.09,-4 2.67,-5.08l9.1,-1.44l0.19,-1.19a58,58 0 0 0 3.84,4.8c1.43,1.67 2.73,3.11 3.51,3.92l-0.13,0l-5.28,8.51l0.06,0.08c-1.1,0.19 -3.1,0.61 -5.39,1.15c-1.73,0.41 -3.28,0.8 -4.4,1.1a10.76,10.76 0 0 0 -1.79,0.56c0,0.19 2.86,-0.35 6.3,-1.16c2.37,-0.56 4.39,-1.09 5.43,-1.42l2.75,4.12a18.55,18.55 0 0 0 6.84,-13.87l0,-0.09l-4.11,1z" fill="#263238" id="svg_81"/>
   <path d="m287.14,172.33l0,1.85l-7.41,0l0,-1.48l3.78,-3.57c0.87,-0.82 1,-1.33 1,-1.8c0,-0.77 -0.53,-1.22 -1.57,-1.22a2.4,2.4 0 0 0 -2,1l-1.66,-1.11a4.57,4.57 0 0 1 3.89,-1.82c2.19,0 3.65,1.12 3.65,2.9c0,1 -0.27,1.82 -1.64,3.1l-2.26,2.13l4.22,0.02z" fill="#263238" id="svg_82"/>
   <path d="m291.86,164.37l0,9.81l-2.27,0l0,-8l-2,0l0,-1.82l4.27,0.01z" fill="#263238" id="svg_83"/>
   <path d="m293.5,167.89a1.36,1.36 0 0 1 2.72,0a1.36,1.36 0 1 1 -2.72,0zm0,5a1.36,1.36 0 0 1 2.72,0a1.36,1.36 0 1 1 -2.72,0z" fill="#263238" id="svg_84"/>
   <path d="m297.24,169.27c0,-3.23 1.79,-5.07 4.2,-5.07s4.21,1.84 4.21,5.07s-1.78,5.07 -4.21,5.07s-4.2,-1.83 -4.2,-5.07zm6.12,0c0,-2.22 -0.78,-3.15 -1.92,-3.15s-1.9,0.93 -1.9,3.15s0.78,3.15 1.9,3.15s1.92,-0.92 1.92,-3.15z" fill="#263238" id="svg_85"/>
   <path d="m306.75,169.27c0,-3.23 1.8,-5.07 4.21,-5.07s4.2,1.84 4.2,5.07s-1.78,5.07 -4.2,5.07s-4.21,-1.83 -4.21,-5.07zm6.13,0c0,-2.22 -0.79,-3.15 -1.92,-3.15s-1.91,0.93 -1.91,3.15s0.79,3.15 1.91,3.15s1.92,-0.92 1.92,-3.15z" fill="#263238" id="svg_86"/>
   <path d="m331.52,172.33l0,1.85l-7.41,0l0,-1.48l3.79,-3.57c0.86,-0.82 1,-1.33 1,-1.8c0,-0.77 -0.53,-1.22 -1.57,-1.22a2.38,2.38 0 0 0 -2,1l-1.67,-1.11a4.58,4.58 0 0 1 3.9,-1.82c2.18,0 3.64,1.12 3.64,2.9c0,1 -0.26,1.82 -1.64,3.1l-2.25,2.13l4.21,0.02z" fill="#263238" id="svg_87"/>
   <path d="m339.7,171.18c0,1.65 -1.27,3.16 -4.06,3.16a6.7,6.7 0 0 1 -3.74,-1.05l0.88,-1.73a4.79,4.79 0 0 0 2.81,0.88c1.13,0 1.83,-0.46 1.83,-1.26s-0.54,-1.21 -1.83,-1.21l-1,0l0,-1.5l2,-2.28l-4.18,0l0,-1.82l6.87,0l0,1.47l-2.28,2.52a2.79,2.79 0 0 1 2.7,2.82z" fill="#263238" id="svg_88"/>
   <path d="m340.69,167.89a1.36,1.36 0 0 1 2.71,0a1.36,1.36 0 1 1 -2.71,0zm0,5a1.36,1.36 0 0 1 2.71,0a1.36,1.36 0 1 1 -2.71,0z" fill="#263238" id="svg_89"/>
   <path d="m344.43,169.27c0,-3.23 1.79,-5.07 4.2,-5.07s4.2,1.84 4.2,5.07s-1.78,5.07 -4.2,5.07s-4.2,-1.83 -4.2,-5.07zm6.12,0c0,-2.22 -0.79,-3.15 -1.92,-3.15s-1.9,0.93 -1.9,3.15s0.78,3.15 1.9,3.15s1.92,-0.92 1.92,-3.15z" fill="#263238" id="svg_90"/>
   <path d="m353.94,169.27c0,-3.23 1.79,-5.07 4.2,-5.07s4.21,1.84 4.21,5.07s-1.78,5.07 -4.21,5.07s-4.2,-1.83 -4.2,-5.07zm6.12,0c0,-2.22 -0.78,-3.15 -1.92,-3.15s-1.9,0.93 -1.9,3.15s0.78,3.15 1.9,3.15s1.92,-0.92 1.92,-3.15z" fill="#263238" id="svg_91"/>
   <path d="m383.74,151.68c0,0.15 -19.18,0.27 -42.84,0.27s-42.84,-0.12 -42.84,-0.27s19.18,-0.26 42.84,-0.26s42.84,0.12 42.84,0.26z" fill="#263238" id="svg_92"/>
   <path d="m370.13,185.09c0,0.15 -13.15,0.26 -29.38,0.26s-29.39,-0.11 -29.39,-0.26s13.16,-0.26 29.39,-0.26s29.38,0.17 29.38,0.26z" fill="#263238" id="svg_93"/>
   <rect fill="#f5f5f5" height="61.67" id="svg_94" width="170.38" x="262.5" y="224.31"/>
   <path d="m294.67,239.72l0,-4l-2,3.31l-0.67,0l-2,-3.23l0,3.94l-1.45,0l0,-6.74l1.28,0l2.51,4.16l2.46,-4.16l1.28,0l0,6.7l-1.41,0.02z" fill="#263238" id="svg_95"/>
   <path d="m297.66,236.77l0,-3.77l1.55,0l0,3.69c0,1.27 0.56,1.8 1.49,1.8s1.49,-0.53 1.49,-1.8l0,-3.69l1.54,0l0,3.75a3,3 0 1 1 -6.07,0l0,0.02z" fill="#263238" id="svg_96"/>
   <path d="m304.73,239.06l0.53,-1.17a4,4 0 0 0 2.21,0.7c0.92,0 1.29,-0.31 1.29,-0.72c0,-1.25 -3.89,-0.39 -3.89,-2.88c0,-1.14 0.92,-2.09 2.82,-2.09a4.41,4.41 0 0 1 2.32,0.6l-0.47,1.17a3.86,3.86 0 0 0 -1.86,-0.52c-0.92,0 -1.27,0.34 -1.27,0.76c0,1.24 3.89,0.39 3.89,2.84c0,1.12 -0.93,2.08 -2.84,2.08a4.8,4.8 0 0 1 -2.73,-0.77z" fill="#263238" id="svg_97"/>
   <path d="m311.37,233l1.55,0l0,6.7l-1.55,0l0,-6.7z" fill="#263238" id="svg_98"/>
   <path d="m314.08,236.37a3.68,3.68 0 0 1 6.39,-2.28l-1,0.92a2.14,2.14 0 0 0 -1.68,-0.79a2.15,2.15 0 1 0 0,4.29a2.14,2.14 0 0 0 1.68,-0.79l1,0.91a3.68,3.68 0 0 1 -6.39,-2.26z" fill="#263238" id="svg_99"/>
   <path d="m325.8,238.28l-3.11,0l-0.6,1.44l-1.58,0l3,-6.7l1.49,0l3,6.7l-1.63,0l-0.57,-1.44zm-0.49,-1.18l-1.06,-2.56l-1.06,2.56l2.12,0z" fill="#263238" id="svg_100"/>
   <path d="m328.72,233l1.55,0l0,5.43l3.36,0l0,1.27l-4.91,0l0,-6.7z" fill="#263238" id="svg_101"/>
   <path d="m342.24,239.1l0,0.62l-4.74,0l0,-6.72l4.6,0l0,0.61l-3.89,0l0,2.39l3.47,0l0,0.61l-3.47,0l0,2.48l4.03,0.01z" fill="#263238" id="svg_102"/>
   <path d="m349.38,233l-3,6.7l-0.69,0l-3,-6.7l0.77,0l2.56,5.82l2.58,-5.82l0.78,0z" fill="#263238" id="svg_103"/>
   <path d="m355.08,239.1l0,0.62l-4.73,0l0,-6.72l4.59,0l0,0.61l-3.88,0l0,2.39l3.46,0l0,0.61l-3.46,0l0,2.48l4.02,0.01z" fill="#263238" id="svg_104"/>
   <path d="m362.35,233l0,6.7l-0.58,0l-4.31,-5.44l0,5.44l-0.71,0l0,-6.7l0.59,0l4.31,5.43l0,-5.43l0.7,0z" fill="#263238" id="svg_105"/>
   <path d="m365.83,233.63l-2.35,0l0,-0.63l5.42,0l0,0.61l-2.36,0l0,6.09l-0.71,0l0,-6.07z" fill="#263238" id="svg_106"/>
   <path d="m436.8,289.25l-231.24,0l0,-69.65l231.24,0l0,69.65zm-230.24,-1l229.24,0l0,-67.65l-229.24,0l0,67.65z" fill="#263238" id="svg_107"/>
   <path d="m237.19,247.09l-10.79,0a1.89,1.89 0 0 1 -1.88,-1.88l0,-9.65a1.88,1.88 0 0 1 1.88,-1.88l10.79,0a1.88,1.88 0 0 1 1.87,1.88l0,9.65a1.88,1.88 0 0 1 -1.87,1.88zm-10.79,-12.46a0.93,0.93 0 0 0 -0.92,0.93l0,9.65a0.92,0.92 0 0 0 0.92,0.92l10.79,0a0.92,0.92 0 0 0 0.92,-0.92l0,-9.65a0.93,0.93 0 0 0 -0.92,-0.93l-10.79,0z" fill="#7E57C2" id="svg_108"/>
   <rect fill="#7E57C2" height="4.04" id="svg_109" rx="1.03" width="2.17" x="226.77" y="231.2"/>
   <rect fill="#7E57C2" height="4.04" id="svg_110" rx="1.03" width="2.17" x="234.21" y="231.2"/>
   <rect fill="#7E57C2" height="2.17" id="svg_111" width="2.17" x="228.41" y="237.55"/>
   <rect fill="#7E57C2" height="2.17" id="svg_112" width="2.17" x="232.73" y="237.55"/>
   <rect fill="#7E57C2" height="2.17" id="svg_113" width="2.17" x="228.41" y="241.64"/>
   <rect fill="#7E57C2" height="2.17" id="svg_114" width="2.17" x="232.73" y="241.64"/>
   <path d="m228.22,256.28l0,12.94l-3,0l0,-10.54l-2.58,0l0,-2.4l5.58,0z" fill="#263238" id="svg_115"/>
   <path d="m240.8,262.47c0,4.47 -2.68,7 -6.6,7a6.9,6.9 0 0 1 -3.58,-0.89l1.11,-2.2a4.18,4.18 0 0 0 2.42,0.65c2.14,0 3.54,-1.28 3.64,-3.77a4.42,4.42 0 0 1 -3.22,1.16c-2.49,0 -4.45,-1.59 -4.45,-4c0,-2.64 2.16,-4.3 4.89,-4.3c3.59,-0.06 5.79,2.18 5.79,6.35zm-3.35,-2.25c0,-1.11 -0.83,-1.92 -2.25,-1.92a1.92,1.92 0 0 0 -2.16,1.92a2,2 0 0 0 2.2,1.94a2,2 0 0 0 2.21,-1.94z" fill="#263238" id="svg_116"/>
   <path d="m243.72,273.21c0,0.15 -5.82,0.27 -13,0.27s-13,-0.12 -13,-0.27s5.82,-0.26 13,-0.26s13,0.12 13,0.26z" fill="#263238" id="svg_117"/>
   <path d="m241.21,277.09a67.8,67.8 0 0 1 -8.33,0.26a68,68 0 0 1 -8.34,-0.26a65.73,65.73 0 0 1 8.34,-0.26a65.5,65.5 0 0 1 8.33,0.26z" fill="#263238" id="svg_118"/>
   <path d="m259.89,286c-0.14,0 -0.26,-13.81 -0.26,-30.84s0.12,-30.84 0.26,-30.84s0.26,13.81 0.26,30.84s-0.15,30.84 -0.26,30.84z" fill="#263238" id="svg_119"/>
   <path d="m373.86,245.07c0,0.15 -21.94,0.26 -49,0.26s-49,-0.11 -49,-0.26s21.94,-0.26 49,-0.26s49,0.12 49,0.26z" fill="#263238" id="svg_120"/>
   <path d="m354.54,249.24c0,0.14 -13.15,0.26 -29.38,0.26s-29.39,-0.12 -29.39,-0.26s13.16,-0.26 29.39,-0.26s29.38,0.11 29.38,0.26z" fill="#263238" id="svg_121"/>
   <path d="m393.6,270.32a4,4 0 0 0 0.53,0.87a4.73,4.73 0 0 0 2.48,1.51a23.67,23.67 0 0 0 4.65,0.44a30.35,30.35 0 0 0 6.18,-0.27a13.63,13.63 0 0 0 3.42,-1a12.49,12.49 0 0 0 3.21,-2.16c2,-1.8 3.67,-4.2 5.85,-6.35a24.08,24.08 0 0 1 3.67,-2.93c0.67,-0.44 1.4,-0.82 2.1,-1.21a4.38,4.38 0 0 0 1.77,-1.55a1.56,1.56 0 0 0 0.14,-1.12a1.83,1.83 0 0 0 -0.66,-0.94a3,3 0 0 0 -2.34,-0.44a13.68,13.68 0 0 0 -4.76,1.87c-0.75,0.45 -1.39,1 -2.12,1.53a4.44,4.44 0 0 1 -1.19,0.6a1.81,1.81 0 0 1 -1.35,-0.07a2,2 0 0 1 -0.9,-1a7.09,7.09 0 0 1 -0.43,-1.22a14.26,14.26 0 0 1 -0.47,-2.48a15.05,15.05 0 0 1 0.35,-4.89a41,41 0 0 1 1.37,-4.51a24.29,24.29 0 0 0 1.89,-8.35a11.53,11.53 0 0 0 -0.21,-2c-0.07,-0.31 -0.16,-0.62 -0.24,-0.93a2.14,2.14 0 0 0 -0.42,-0.79a1.22,1.22 0 0 0 -1.57,0a2.35,2.35 0 0 0 -0.86,1.42c-0.13,0.55 -0.2,1.11 -0.29,1.65s-0.2,1.06 -0.31,1.57c-0.21,1 -0.45,2 -0.7,2.85a42.3,42.3 0 0 1 -1.5,4.45a10.65,10.65 0 0 1 -1.34,2.65a3.14,3.14 0 0 1 -0.74,0.72l0.19,-0.18a4.18,4.18 0 0 0 0.51,-0.58a11.21,11.21 0 0 0 1.29,-2.65c0.45,-1.2 1,-2.68 1.45,-4.45c0.24,-0.88 0.47,-1.83 0.68,-2.84c0.1,-0.51 0.2,-1 0.29,-1.57s0.15,-1.1 0.29,-1.67a2.53,2.53 0 0 1 0.93,-1.54a1.87,1.87 0 0 1 0.9,-0.31a1.21,1.21 0 0 1 0.93,0.35a2.09,2.09 0 0 1 0.46,0.87a7.36,7.36 0 0 1 0.25,0.95a10.21,10.21 0 0 1 0.22,2a24.24,24.24 0 0 1 -1.87,8.43a41.31,41.31 0 0 0 -1.36,4.46a14.8,14.8 0 0 0 -0.33,4.8a13.63,13.63 0 0 0 0.46,2.44a7.83,7.83 0 0 0 0.41,1.18a1.75,1.75 0 0 0 0.79,0.86a1.52,1.52 0 0 0 1.15,0.06a4.09,4.09 0 0 0 1.12,-0.57c0.71,-0.47 1.37,-1.07 2.13,-1.53a13.88,13.88 0 0 1 4.87,-1.91a3.29,3.29 0 0 1 2.53,0.49a2,2 0 0 1 0.75,1.08a1.8,1.8 0 0 1 -0.16,1.31a4.63,4.63 0 0 1 -1.87,1.65c-0.72,0.4 -1.42,0.77 -2.09,1.21a22.51,22.51 0 0 0 -3.64,2.88c-2.16,2.12 -3.83,4.53 -5.87,6.34a12.92,12.92 0 0 1 -3.22,2.2a14.63,14.63 0 0 1 -3.48,1a31.29,31.29 0 0 1 -6.22,0.23a22.93,22.93 0 0 1 -4.67,-0.5a4.76,4.76 0 0 1 -2.49,-1.56a3.36,3.36 0 0 1 -0.4,-0.66a2.08,2.08 0 0 1 -0.14,-0.19z" fill="#263238" id="svg_122"/>
   <path d="m398,249.63a1.07,1.07 0 0 1 -0.41,-0.33a2.3,2.3 0 0 1 -0.49,-1.41a15.87,15.87 0 0 1 0.12,-2.36c0.08,-0.92 0.15,-2 0.21,-3.13s0.11,-2.43 0.11,-3.78a2,2 0 0 0 -0.78,-1.76a1.43,1.43 0 0 0 -1,-0.26a1.29,1.29 0 0 0 -0.87,0.52a5.44,5.44 0 0 0 -0.74,2.15a19.24,19.24 0 0 0 -0.22,2.44c-0.07,1.66 -0.08,3.39 -0.09,5.16s0,3.5 -0.09,5.17s-0.22,3.29 -0.42,4.81a54.81,54.81 0 0 0 -0.65,8.1a18.28,18.28 0 0 0 0.9,5.38c0.21,0.61 0.42,1.07 0.56,1.38c0.07,0.14 0.12,0.26 0.17,0.35l0.05,0.12s0,0 -0.08,-0.11l-0.19,-0.34a11.32,11.32 0 0 1 -0.6,-1.37a17.21,17.21 0 0 1 -1,-5.4a51.7,51.7 0 0 1 0.59,-8.14a74.48,74.48 0 0 0 0.49,-9.95c0,-1.77 0,-3.5 0.1,-5.18a18.14,18.14 0 0 1 0.22,-2.46a5.43,5.43 0 0 1 0.8,-2.25a1.5,1.5 0 0 1 1,-0.62a1.73,1.73 0 0 1 1.12,0.31a1.82,1.82 0 0 1 0.7,0.88a3.35,3.35 0 0 1 0.17,1.06c0,1.38 -0.07,2.64 -0.14,3.8s-0.16,2.21 -0.25,3.13a16.68,16.68 0 0 0 -0.17,2.35a2.44,2.44 0 0 0 0.43,1.38a2.05,2.05 0 0 0 0.45,0.36z" fill="#263238" id="svg_123"/>
   <path d="m398.08,249.31a1.88,1.88 0 0 1 0.3,-0.29a3.44,3.44 0 0 1 1,-0.6a4.27,4.27 0 0 1 1.87,-0.23a4.55,4.55 0 0 1 2.33,0.89a2.53,2.53 0 0 1 0.9,1.17a11,11 0 0 1 0.28,1.56a15,15 0 0 1 0.11,1.68c0,0.57 0,1.16 0.05,1.77c0,1.21 0.07,2.49 0.11,3.81l0.06,2a11.42,11.42 0 0 1 -0.05,2.1a2.29,2.29 0 0 1 -0.42,1a2.31,2.31 0 0 1 -0.86,0.66a2.36,2.36 0 0 1 -2.06,-0.05a2.67,2.67 0 0 1 -1.19,-1.6a11.32,11.32 0 0 1 -0.42,-1.84c-0.35,-2.42 -0.26,-4.62 -0.45,-6.44a13.36,13.36 0 0 0 -1,-4.2a9,9 0 0 0 -0.53,-1q-0.21,-0.35 -0.21,-0.36a2.49,2.49 0 0 1 0.26,0.33a9.81,9.81 0 0 1 0.58,1a13.11,13.11 0 0 1 1.07,4.22c0.21,1.83 0.14,4 0.5,6.42a11.45,11.45 0 0 0 0.42,1.8a2.43,2.43 0 0 0 1.07,1.45a2.1,2.1 0 0 0 1.83,0a2,2 0 0 0 0.76,-0.58a2.23,2.23 0 0 0 0.37,-0.9a11.68,11.68 0 0 0 0.05,-2.05l-0.06,-2c0,-1.32 -0.06,-2.6 -0.09,-3.81c0,-0.61 0,-1.2 0,-1.78a14.81,14.81 0 0 0 -0.1,-1.66a11.48,11.48 0 0 0 -0.25,-1.52a2.4,2.4 0 0 0 -0.82,-1.08a4.38,4.38 0 0 0 -2.23,-0.89a4.44,4.44 0 0 0 -1.82,0.17a5.09,5.09 0 0 0 -1.36,0.85z" fill="#263238" id="svg_124"/>
   <path d="m403.7,249.28a1.53,1.53 0 0 1 0.12,-0.28a2,2 0 0 1 0.6,-0.62a4.31,4.31 0 0 1 1.25,-0.53a4.16,4.16 0 0 1 1.8,-0.16a3.42,3.42 0 0 1 1.87,1.14a5,5 0 0 1 1.16,2.23a11.52,11.52 0 0 1 0.14,2.77c0,0.95 -0.1,1.94 -0.22,2.95s-0.29,2 -0.48,2.91a14.75,14.75 0 0 1 -0.75,2.67a3.31,3.31 0 0 1 -1.67,1.86a1.83,1.83 0 0 1 -1.17,0.12a1.48,1.48 0 0 1 -0.88,-0.63a3.16,3.16 0 0 1 -0.41,-1.77c0,-0.53 0.08,-1 0.08,-1.34a3.75,3.75 0 0 0 -0.14,-1.13s0,0 0,0.07a0.76,0.76 0 0 1 0.08,0.21a3,3 0 0 1 0.13,0.85c0,0.37 0,0.82 0,1.35a3,3 0 0 0 0.41,1.65a1.29,1.29 0 0 0 0.78,0.54a1.63,1.63 0 0 0 1,-0.12a3.14,3.14 0 0 0 1.54,-1.76a15.17,15.17 0 0 0 0.72,-2.62c0.19,-0.93 0.35,-1.9 0.47,-2.9s0.19,-2 0.22,-2.92a11.46,11.46 0 0 0 -0.12,-2.71a4.84,4.84 0 0 0 -1.08,-2.13a3.18,3.18 0 0 0 -1.74,-1.11a4.07,4.07 0 0 0 -1.73,0.12a4.32,4.32 0 0 0 -1.23,0.48a2.14,2.14 0 0 0 -0.75,0.81z" fill="#263238" id="svg_125"/>
   <path d="m399.61,256.59a2.53,2.53 0 0 1 -1.81,-0.21a2.5,2.5 0 0 1 -1.38,-1.2a5.58,5.58 0 0 0 3.19,1.41z" fill="#263238" id="svg_126"/>
   <path d="m403.68,270.16c-0.05,0 -0.1,-0.73 -0.41,-1.87a12.75,12.75 0 0 0 -0.68,-2a13.19,13.19 0 0 0 -2.86,-4.13a13.14,13.14 0 0 0 -1.58,-1.33c-0.95,-0.69 -1.62,-1 -1.6,-1.05a2.12,2.12 0 0 1 0.48,0.19a4.73,4.73 0 0 1 0.54,0.28a8,8 0 0 1 0.69,0.42a12.83,12.83 0 0 1 1.64,1.33a13.72,13.72 0 0 1 1.67,2a13.07,13.07 0 0 1 1.24,2.26a12.42,12.42 0 0 1 0.65,2c0.07,0.28 0.1,0.55 0.14,0.79a3.82,3.82 0 0 1 0.07,0.6a1.59,1.59 0 0 1 0.01,0.51z" fill="#263238" id="svg_127"/>
   <path d="m412.12,250.42a2.54,2.54 0 0 1 -0.59,1.45a2.65,2.65 0 0 1 -1.15,1.06c-0.05,-0.06 0.46,-0.52 0.93,-1.21s0.74,-1.32 0.81,-1.3z" fill="#263238" id="svg_128"/>
   <path d="m415.25,268.72a2.94,2.94 0 0 1 0.5,1.08a5,5 0 0 1 -0.28,3.21a6.4,6.4 0 0 1 -1.21,1.9a7.36,7.36 0 0 1 -2.1,1.52a14.93,14.93 0 0 1 -5.74,1.3a21,21 0 0 1 -5.88,-0.26a9.08,9.08 0 0 1 -4.3,-2.13a6.52,6.52 0 0 1 -1.82,-2.67a3,3 0 0 1 -0.15,-0.49a3.35,3.35 0 0 1 -0.07,-0.37a1.14,1.14 0 0 1 0,-0.3s0.07,0.42 0.34,1.13a6.7,6.7 0 0 0 1.86,2.56a9,9 0 0 0 4.22,2a21.64,21.64 0 0 0 5.81,0.23a15.08,15.08 0 0 0 5.65,-1.26a6.94,6.94 0 0 0 2.05,-1.45a6.7,6.7 0 0 0 1.2,-1.83a4.91,4.91 0 0 0 0.35,-3.11a7.84,7.84 0 0 0 -0.43,-1.06z" fill="#263238" id="svg_129"/>
   <path d="m415,271.94a14.67,14.67 0 0 1 1.46,-0.88c0.9,-0.53 2.12,-1.3 3.42,-2.24l0.46,-0.33l0.09,0.23a22.7,22.7 0 0 0 -3.65,0.61c-0.9,0.22 -1.45,0.4 -1.46,0.36a1.17,1.17 0 0 1 0.37,-0.17a10.14,10.14 0 0 1 1,-0.36a18,18 0 0 1 3.66,-0.7l0.47,0l-0.38,0.28l-0.46,0.34a30.12,30.12 0 0 1 -3.48,2.18c-0.47,0.25 -0.85,0.44 -1.12,0.56s-0.33,0.18 -0.38,0.12z" fill="#263238" id="svg_130"/>
   <path d="m405,272.68a8,8 0 0 1 1,0.54c0.64,0.36 1.55,0.89 2.61,1.52l0.17,0.1l-0.17,0.1a2,2 0 0 0 -0.61,1.06a2.91,2.91 0 0 1 -0.78,1.33a1.05,1.05 0 0 1 -0.61,0.26a1.13,1.13 0 0 1 -0.63,-0.14a4.56,4.56 0 0 1 -0.91,-0.67a4.4,4.4 0 0 0 -1.56,-1.09l-0.13,0l0.08,-0.12c0.47,-0.71 0.87,-1.29 1.15,-1.69a4.21,4.21 0 0 1 0.47,-0.61a2.86,2.86 0 0 1 -0.37,0.68c-0.25,0.41 -0.62,1 -1.08,1.73l-0.06,-0.15a4.5,4.5 0 0 1 1.66,1.1a4.49,4.49 0 0 0 0.87,0.63a0.81,0.81 0 0 0 0.95,-0.09a2.78,2.78 0 0 0 0.71,-1.22a2.19,2.19 0 0 1 0.8,-1.19l0,0.24l-2.55,-1.6a6.48,6.48 0 0 1 -1.01,-0.72z" fill="#263238" id="svg_131"/>
   <path d="m396,275.12a2,2 0 0 1 -0.54,0.11c-0.35,0 -0.86,0.11 -1.49,0.17a38.77,38.77 0 0 1 -5,0.07l-0.44,0l-0.59,0l0.55,-0.22a40.54,40.54 0 0 0 4.18,-2c1,-0.57 1.65,-0.94 1.67,-0.91a2.22,2.22 0 0 1 -0.4,0.31c-0.27,0.19 -0.67,0.45 -1.18,0.75a30.43,30.43 0 0 1 -4.17,2.07l0,-0.25l0.44,0a47.58,47.58 0 0 0 4.93,0l1.49,-0.08a2.32,2.32 0 0 1 0.55,-0.02z" fill="#263238" id="svg_132"/>
   <path d="m380.31,230.25c0.44,0.52 7.07,11.62 7.07,11.62l-3,0.51s3.51,9.58 3.1,9.29s-9.85,-11 -9.85,-11l4.33,-2.76l-1.65,-7.66z" fill="#263238" id="svg_133"/>
   <path d="m426.15,239.72c-0.22,0.26 -3.53,5.81 -3.53,5.81l1.51,0.25s-1.75,4.79 -1.55,4.65s4.93,-5.52 4.93,-5.52l-2.17,-1.38l0.81,-3.81z" fill="#263238" id="svg_134"/>
   <path d="m379,280.76c0.29,-0.18 5.11,-4.5 5.11,-4.5l-1.38,-0.69s3.1,-4.06 2.86,-4s-6.34,3.82 -6.34,3.82l1.66,1.95l-1.91,3.42z" fill="#263238" id="svg_135"/>
   <path d="m404.81,227.5c-0.16,0.45 -1.8,9.35 -1.8,9.35l2.11,-0.41s0,7.14 0.24,6.85s3.76,-9.65 3.76,-9.65l-3.51,-0.75l-0.8,-5.39z" fill="#263238" id="svg_136"/>
   <path d="m293.71,270c-0.51,0.92 -1,1.82 -1.49,2.71a1,1 0 0 1 -0.53,0.44a1.29,1.29 0 0 1 -0.83,-0.26c-0.44,-0.27 -0.83,-0.5 -1.17,-0.68a4,4 0 0 1 -0.94,-0.7a1.64,1.64 0 0 1 -0.47,-0.91a2.3,2.3 0 0 1 0.21,-1.13l0.65,-1.56c0.28,-0.69 0.6,-1.46 1,-2.32s0.76,-1.78 1.2,-2.76s0.87,-2 1.32,-2.94s0.9,-1.92 1.36,-2.83s0.89,-1.71 1.3,-2.42a11.37,11.37 0 0 1 1.17,-1.71a1.9,1.9 0 0 1 0.95,-0.73c1.24,-0.16 2.53,-0.28 3.86,-0.39a18.58,18.58 0 0 1 3.82,0.08a10.21,10.21 0 0 1 3.28,1a5.07,5.07 0 0 1 2.27,2.22a17.84,17.84 0 0 1 1,2.67a9.83,9.83 0 0 1 0.3,3.17a4.53,4.53 0 0 1 -1.17,2.81a10,10 0 0 1 -4.08,2.4a31,31 0 0 1 -6,1.26c0.26,0.58 0.56,1.2 0.88,1.86s0.66,1.32 1,2s0.7,1.32 1.06,1.95s0.69,1.19 1,1.68s0.34,0.69 0.25,0.85a1.06,1.06 0 0 1 -0.62,0.42a2.06,2.06 0 0 1 -0.94,0.18l-0.85,-0.1a3.78,3.78 0 0 1 -1.3,-0.31a4.22,4.22 0 0 1 -1.43,-1.12c-0.31,-0.41 -0.67,-0.91 -1.07,-1.49s-0.79,-1.22 -1.19,-1.91s-0.8,-1.39 -1.19,-2.12a20.53,20.53 0 0 1 -1,-2.14c-0.56,0.93 -1.1,1.89 -1.61,2.83zm6.07,-10.07c-0.58,0.94 -1.22,1.93 -1.91,3a16.16,16.16 0 0 0 3.69,-0.48a15.88,15.88 0 0 0 2.92,-1.06a7.05,7.05 0 0 0 1.9,-1.3a1.79,1.79 0 0 0 0.66,-1.18c-0.06,-0.56 -0.6,-1 -1.64,-1.32a9.09,9.09 0 0 0 -1.74,-0.34a8.42,8.42 0 0 0 -2.16,0.08c-0.56,0.77 -1.13,1.67 -1.72,2.58l0,0.02z" fill="#263238" id="svg_137"/>
   <path d="m329,261.15a7.78,7.78 0 0 1 0.36,2.24a20.27,20.27 0 0 1 -0.56,4.34a23.68,23.68 0 0 1 -1.54,4.5a21.84,21.84 0 0 1 -2.44,4.07a12.59,12.59 0 0 1 -3.27,3a6.07,6.07 0 0 1 -2.46,0.77a8.47,8.47 0 0 1 -2.77,-0.32a20,20 0 0 1 -2.07,-0.68a8,8 0 0 1 -1.88,-1a8.15,8.15 0 0 1 -1.29,-1.22a4.55,4.55 0 0 1 -0.9,-1.54a11,11 0 0 1 -0.52,-3a15.68,15.68 0 0 1 0.23,-3.38a18.35,18.35 0 0 1 1,-3.48a17.79,17.79 0 0 1 1.68,-3.35a18,18 0 0 1 2.33,-3a15.09,15.09 0 0 1 2.93,-2.36a6.81,6.81 0 0 1 2.46,-0.75a5.66,5.66 0 0 1 2.55,0.21a16.35,16.35 0 0 1 2.83,1.23a8.64,8.64 0 0 1 2.13,1.63a5.69,5.69 0 0 1 1.2,2.09zm-7.4,0.26a9.36,9.36 0 0 0 -1.71,1.59a19.28,19.28 0 0 0 -1.72,2.33a22.14,22.14 0 0 0 -1.43,2.55a16.81,16.81 0 0 0 -1.49,5.11a6.46,6.46 0 0 0 0.06,2.09a1.57,1.57 0 0 0 0.78,1.19a1.34,1.34 0 0 0 1.24,0a5.38,5.38 0 0 0 1.47,-1.14a12.9,12.9 0 0 0 1.54,-2a20.36,20.36 0 0 0 1.42,-2.72a21.23,21.23 0 0 0 1,-2.72a20.24,20.24 0 0 0 0.67,-2.84a9,9 0 0 0 0.12,-2.37c-0.07,-0.67 -0.28,-1.09 -0.62,-1.26a1.31,1.31 0 0 0 -1.31,0.19l-0.02,0z" fill="#263238" id="svg_138"/>
   <path d="m346.34,273.91a2.67,2.67 0 0 1 -0.12,1.49a7.86,7.86 0 0 1 -0.87,2.05a10.22,10.22 0 0 1 -1.23,1.66a5.74,5.74 0 0 1 -0.81,0.65a6.85,6.85 0 0 1 -1,0.58a8.25,8.25 0 0 1 -1.18,0.45a7.7,7.7 0 0 1 -1.23,0.26a10.1,10.1 0 0 1 -2.37,0.08c-0.73,-0.06 -1.38,-0.12 -2,-0.19a6.38,6.38 0 0 1 -1.64,-0.56a4.49,4.49 0 0 1 -1.41,-1.08a8.16,8.16 0 0 1 -1.56,-2.54a15.59,15.59 0 0 1 -0.91,-3.33a21.4,21.4 0 0 1 -0.25,-3.81a23.21,23.21 0 0 1 0.45,-4a20.64,20.64 0 0 1 1.17,-3.8a14.46,14.46 0 0 1 1.9,-3.35a5.86,5.86 0 0 1 2,-1.75a6.78,6.78 0 0 1 2.14,-0.67a12.41,12.41 0 0 1 1.63,-0.05a15.05,15.05 0 0 1 1.66,0.16a13.85,13.85 0 0 1 1.56,0.32a12.1,12.1 0 0 1 1.36,0.44a6.12,6.12 0 0 1 1,0.67a4.94,4.94 0 0 1 0.72,0.73a3.92,3.92 0 0 1 0.47,0.85a7.68,7.68 0 0 1 0.32,1a12,12 0 0 1 0.26,1.3c0.07,0.45 0.12,0.91 0.16,1.36s0.05,0.89 0.05,1.31s0,0.81 -0.07,1.16c0,0.15 -0.05,0.3 -0.08,0.44a0.67,0.67 0 0 1 -0.16,0.34a0.92,0.92 0 0 1 -0.39,0.23a3.3,3.3 0 0 1 -0.74,0.09a6.35,6.35 0 0 1 -1.58,-0.13a3.76,3.76 0 0 1 -1.17,-0.46a3.23,3.23 0 0 1 -0.84,-0.77a4.84,4.84 0 0 1 -0.6,-1.11a8.38,8.38 0 0 1 -0.3,-1a8.71,8.71 0 0 0 -0.41,-1.55a1.1,1.1 0 0 0 -0.84,-0.78c-0.38,0 -0.76,0.26 -1.14,0.89a12.2,12.2 0 0 0 -1.05,2.35a24.19,24.19 0 0 0 -0.84,3.06a23.69,23.69 0 0 0 -0.45,3a21.57,21.57 0 0 0 0,2.79a13,13 0 0 0 0.38,2.46a6.08,6.08 0 0 0 0.74,1.77a1.43,1.43 0 0 0 1.06,0.74c0.77,0.08 1.73,-0.79 2.89,-2.61a4,4 0 0 1 4,-1.76c0.8,0.05 1.21,0.25 1.32,0.62z" fill="#263238" id="svg_139"/>
   <path d="m360.43,265.92c0.68,0.36 1.34,0.7 2,1s1.26,0.61 1.84,0.87s1.06,0.47 1.48,0.62s0.65,0.3 0.68,0.5a1.22,1.22 0 0 1 -0.36,0.83a4.29,4.29 0 0 1 -0.58,0.68a7.12,7.12 0 0 1 -0.76,0.62a3.4,3.4 0 0 1 -1.25,0.75a2.6,2.6 0 0 1 -1.74,-0.1l-1.16,-0.42l-1.63,-0.63c-0.6,-0.25 -1.23,-0.51 -1.89,-0.8s-1.29,-0.58 -1.89,-0.89c0.36,1.19 0.69,2.27 1,3.25s0.6,1.87 0.86,2.67a0.67,0.67 0 0 1 0.09,0.59a0.88,0.88 0 0 1 -0.42,0.38a3.92,3.92 0 0 1 -0.85,0.26l-1.13,0.24a4.49,4.49 0 0 1 -2,0.11a1.8,1.8 0 0 1 -1.14,-1.11c-0.29,-0.58 -0.63,-1.35 -1,-2.31s-0.83,-2 -1.29,-3.2s-0.92,-2.41 -1.4,-3.71s-0.93,-2.57 -1.37,-3.83s-0.84,-2.45 -1.21,-3.58s-0.68,-2.13 -0.92,-3a1.31,1.31 0 0 1 0.14,-1.15a1.89,1.89 0 0 1 1.13,-0.52a13.35,13.35 0 0 1 2,-0.3a11.79,11.79 0 0 1 2,0a5.92,5.92 0 0 1 0.81,0.12a1.18,1.18 0 0 1 0.52,0.21a0.85,0.85 0 0 1 0.3,0.39a3.06,3.06 0 0 1 0.17,0.61c0.19,1 0.45,2 0.77,3.23s0.68,2.49 1.07,3.91c0.29,-1.11 0.6,-2.3 0.95,-3.58s0.67,-2.52 1,-3.75s0.61,-2.39 0.87,-3.49s0.47,-2 0.62,-2.76a1.24,1.24 0 0 1 0.49,-1a1.69,1.69 0 0 1 1.16,0a5.12,5.12 0 0 1 1.43,0.55a13.6,13.6 0 0 1 1.32,0.87a2.48,2.48 0 0 1 0.69,1a3.88,3.88 0 0 1 0.14,1.55a18.56,18.56 0 0 1 -0.41,2.85c-0.22,1.09 -0.5,2.22 -0.82,3.4s-0.67,2.37 -1.06,3.57s-0.75,2.34 -1.1,3.4c0.53,0.38 1.17,0.74 1.85,1.1z" fill="#263238" id="svg_140"/>
   <rect fill="#f5f5f5" height="61.67" id="svg_141" width="170.38" x="262.5" y="313.79"/>
   <path d="m274.79,324.77l1.21,0l0,2.23a3.73,3.73 0 0 1 -2.22,0.7a2.85,2.85 0 1 1 0,-5.68a2.91,2.91 0 0 1 2.29,0.95l-0.81,0.76a1.85,1.85 0 0 0 -1.42,-0.62a1.76,1.76 0 1 0 0,3.51a1.93,1.93 0 0 0 1,-0.24l-0.05,-1.61z" fill="#263238" id="svg_142"/>
   <path d="m280.74,326.42l-2.55,0l-0.49,1.18l-1.3,0l2.45,-5.49l1.25,0l2.46,5.49l-1.34,0l-0.48,-1.18zm-0.4,-1l-0.87,-2.11l-0.87,2.11l1.74,0z" fill="#263238" id="svg_143"/>
   <path d="m288.12,327.6l0,-3.3l-1.62,2.7l-0.58,0l-1.6,-2.65l0,3.23l-1.2,0l0,-5.49l1.05,0l2.06,3.41l2,-3.41l1.05,0l0,5.49l-1.16,0.02z" fill="#263238" id="svg_144"/>
   <path d="m294.86,326.58l0,1l-4.25,0l0,-5.49l4.15,0l0,1l-2.89,0l0,1.19l2.55,0l0,1l-2.55,0l0,1.27l2.99,0.03z" fill="#263238" id="svg_145"/>
   <path d="m299.36,327.6l-1.06,-1.53l-1.16,0l0,1.53l-1.28,0l0,-5.49l2.38,0c1.47,0 2.39,0.76 2.39,2a1.78,1.78 0 0 1 -1.13,1.73l1.23,1.77l-1.37,-0.01zm-1.19,-4.46l-1,0l0,1.92l1,0c0.78,0 1.17,-0.37 1.17,-1s-0.34,-0.92 -1.17,-0.92z" fill="#263238" id="svg_146"/>
   <path d="m308,327.1l0,0.5l-3.89,0l0,-5.49l3.77,0l0,0.5l-3.19,0l0,1.95l2.84,0l0,0.5l-2.84,0l0,2l3.31,0.04z" fill="#263238" id="svg_147"/>
   <path d="m313.81,322.11l-2.43,5.49l-0.57,0l-2.43,-5.49l0.62,0l2.11,4.77l2.11,-4.77l0.59,0z" fill="#263238" id="svg_148"/>
   <path d="m318.48,327.1l0,0.5l-3.88,0l0,-5.49l3.76,0l0,0.5l-3.18,0l0,1.95l2.82,0l0,0.5l-2.84,0l0,2l3.32,0.04z" fill="#263238" id="svg_149"/>
   <path d="m324.43,322.11l0,5.49l-0.43,0l-3.53,-4.46l0,4.46l-0.58,0l0,-5.49l0.48,0l3.54,4.45l0,-4.45l0.52,0z" fill="#263238" id="svg_150"/>
   <path d="m327.28,322.61l-1.93,0l0,-0.5l4.44,0l0,0.5l-1.93,0l0,5l-0.58,0l0,-5z" fill="#263238" id="svg_151"/>
   <path d="m436.8,378.73l-231.24,0l0,-69.66l231.24,0l0,69.66zm-230.24,-1l229.24,0l0,-67.66l-229.24,0l0,67.66z" fill="#263238" id="svg_152"/>
   <path d="m239.61,336.57l-10.79,0a1.89,1.89 0 0 1 -1.88,-1.88l0,-9.69a1.88,1.88 0 0 1 1.88,-1.88l10.79,0a1.88,1.88 0 0 1 1.87,1.88l0,9.65a1.88,1.88 0 0 1 -1.87,1.92zm-10.79,-12.46a0.93,0.93 0 0 0 -0.92,0.93l0,9.65a0.92,0.92 0 0 0 0.92,0.92l10.79,0a0.92,0.92 0 0 0 0.92,-0.92l0,-9.69a0.93,0.93 0 0 0 -0.92,-0.93l-10.79,0.04z" fill="#7E57C2" id="svg_153"/>
   <rect fill="#7E57C2" height="4.04" id="svg_154" rx="1.03" width="2.17" x="229.19" y="320.68"/>
   <rect fill="#7E57C2" height="4.04" id="svg_155" rx="1.03" width="2.17" x="236.63" y="320.68"/>
   <rect fill="#7E57C2" height="2.17" id="svg_156" width="2.17" x="230.83" y="327.03"/>
   <rect fill="#7E57C2" height="2.17" id="svg_157" width="2.17" x="235.15" y="327.03"/>
   <rect fill="#7E57C2" height="2.17" id="svg_158" width="2.17" x="230.83" y="331.12"/>
   <rect fill="#7E57C2" height="2.17" id="svg_159" width="2.17" x="235.15" y="331.12"/>
   <path d="m232.89,356.25l0,2.44l-9.77,0l0,-1.94l5,-4.71c1.14,-1.09 1.34,-1.76 1.34,-2.39c0,-1 -0.7,-1.6 -2.07,-1.6a3.14,3.14 0 0 0 -2.67,1.29l-2.19,-1.41a6,6 0 0 1 5.14,-2.4c2.88,0 4.81,1.48 4.81,3.83c0,1.25 -0.35,2.4 -2.17,4.08l-3,2.81l5.58,0z" fill="#263238" id="svg_160"/>
   <path d="m243.9,354.62c0,2.29 -1.68,4.29 -5.38,4.29a8.92,8.92 0 0 1 -4.93,-1.39l1.18,-2.29a6.23,6.23 0 0 0 3.68,1.17c1.5,0 2.42,-0.63 2.42,-1.68s-0.66,-1.69 -3,-1.69l-3.31,0l0.67,-7.28l7.89,0l0,2.41l-5.4,0l-0.2,2.45l1.05,0c3.82,0 5.33,1.72 5.33,4.01z" fill="#263238" id="svg_161"/>
   <path d="m243.72,362.69c0,0.14 -5.82,0.26 -13,0.26s-13,-0.12 -13,-0.26s5.82,-0.26 13,-0.26s13,0.11 13,0.26z" fill="#263238" id="svg_162"/>
   <path d="m241.21,366.56a67.8,67.8 0 0 1 -8.33,0.26a68,68 0 0 1 -8.34,-0.26a68,68 0 0 1 8.34,-0.26a67.8,67.8 0 0 1 8.33,0.26z" fill="#263238" id="svg_163"/>
   <path d="m259.89,375.46c-0.14,0 -0.26,-13.81 -0.26,-30.83s0.12,-30.84 0.26,-30.84s0.26,13.8 0.26,30.84s-0.15,30.83 -0.26,30.83z" fill="#263238" id="svg_164"/>
   <path d="m403.66,321.41a3.47,3.47 0 0 1 2,-2.77a9.44,9.44 0 0 1 3.45,-0.83a30.32,30.32 0 0 1 5.55,-0.15a5.79,5.79 0 0 1 2.63,0.73c1.69,1.07 2.11,3.41 1.77,5.38a3.35,3.35 0 0 1 -1,2.07a3.54,3.54 0 0 1 -1.16,0.55a23.78,23.78 0 0 1 -10.89,0.89c-1.09,-0.16 -2.35,-0.56 -2.7,-1.61" fill="#263238" id="svg_165"/>
   <path d="m370.12,320.35a3.48,3.48 0 0 0 -2,-2.77a9.38,9.38 0 0 0 -3.45,-0.82a29.43,29.43 0 0 0 -5.55,-0.14a5.79,5.79 0 0 0 -2.63,0.73c-1.69,1.08 -2.11,3.41 -1.76,5.38a3.28,3.28 0 0 0 1,2.07a3.49,3.49 0 0 0 1.15,0.55a24,24 0 0 0 10.9,0.88c1.09,-0.17 2.35,-0.57 2.69,-1.62" fill="#263238" id="svg_166"/>
   <path d="m387,322c-6.74,0.18 -15.23,-0.75 -17.52,-1.4s-12.18,-3.58 -17,1.1s-9.54,35.7 -9.21,42.12s8.49,10.87 13.39,8s11.63,-16.11 13.26,-16.33s6.31,1.95 9.35,-0.23a28.7,28.7 0 0 0 4.57,-3.92s6.09,-0.22 6.64,-0.22s2.61,4.13 5.55,5s8.27,-0.77 9,-1.1s5.88,9.68 11.11,14.68s14.91,1.95 15.44,-6s-8.73,-36.76 -11.89,-40.89s-14.47,-2.93 -19.26,-1.51s-9.17,0.57 -13.43,0.7z" fill="#455a64" id="svg_167"/>
   <path d="m416.21,364.61c-5.23,-5 -10.35,-15 -11.11,-14.68s-6.1,2 -9,1.09s-5,-5 -5.56,-5s-6.63,0.23 -6.63,0.23a29.3,29.3 0 0 1 -4.57,3.92c-3,2.18 -7.72,0 -9.36,0.22s-8.36,13.5 -13.26,16.33c-4.59,2.66 -12.06,-1.1 -13.24,-6.88a33.8,33.8 0 0 0 -0.14,4c0.33,6.42 8.49,10.87 13.39,8s11.63,-16.11 13.26,-16.33s6.31,1.95 9.35,-0.23a28.7,28.7 0 0 0 4.57,-3.92s6.09,-0.22 6.64,-0.22s2.61,4.13 5.55,5s8.27,-0.77 9,-1.1s5.88,9.68 11.11,14.68s14.91,1.95 15.44,-6a19.52,19.52 0 0 0 -0.2,-3.69c-1.52,6.87 -10.34,9.27 -15.24,4.58z" fill="#263238" id="svg_168"/>
   <circle cx="364.52" cy="333.84" fill="#263238" id="svg_169" r="9.65" transform="translate(-93.7 148.46) rotate(-20.46)"/>
   <path d="m373.22,333a9.65,9.65 0 1 1 -9.66,-9.65a9.63,9.63 0 0 1 9.66,9.65z" fill="#455a64" id="svg_170"/>
   <path d="m373.22,333a18.82,18.82 0 0 0 -0.4,-2.33a9.56,9.56 0 0 0 -3.53,-5.19a9.27,9.27 0 0 0 -4,-1.74a9.44,9.44 0 0 0 -4.95,0.43a8.77,8.77 0 0 0 -2.38,1.29a9,9 0 0 0 -2,2a9.35,9.35 0 0 0 0,11.1a8.79,8.79 0 0 0 2,2a9,9 0 0 0 2.37,1.28a9.52,9.52 0 0 0 12.45,-6.51a19.17,19.17 0 0 0 0.4,-2.33a7.28,7.28 0 0 1 -0.2,2.38a9.7,9.7 0 0 1 -7.62,7.31a9.81,9.81 0 0 1 -5.19,-0.39a10,10 0 0 1 -4.61,-3.43a9.83,9.83 0 0 1 0,-11.71a9.1,9.1 0 0 1 2.1,-2.1a9.23,9.23 0 0 1 2.51,-1.34a9.74,9.74 0 0 1 12.82,6.9a7.28,7.28 0 0 1 0.23,2.38z" fill="#263238" id="svg_171"/>
   <path d="m420.77,334.31a9.65,9.65 0 1 1 -9.66,-9.65a9.64,9.64 0 0 1 9.66,9.65z" fill="#263238" id="svg_172"/>
   <circle cx="412.13" cy="332.93" fill="#7E57C2" id="svg_173" r="9.65" transform="translate(-3.93 4.93) rotate(-0.68)"/>
   <circle cx="412.13" cy="332.93" fill="#455a64" id="svg_174" r="9.65" transform="translate(-3.93 4.93) rotate(-0.68)"/>
   <path d="m421.78,332.93a18.82,18.82 0 0 0 -0.4,-2.33a9.56,9.56 0 0 0 -3.53,-5.19a9.27,9.27 0 0 0 -4,-1.74a9.44,9.44 0 0 0 -4.95,0.43a8.77,8.77 0 0 0 -2.38,1.29a9,9 0 0 0 -2,2a9.35,9.35 0 0 0 0,11.1a8.79,8.79 0 0 0 2,2a9,9 0 0 0 2.37,1.28a9.52,9.52 0 0 0 12.45,-6.51a19.17,19.17 0 0 0 0.4,-2.33a7.28,7.28 0 0 1 -0.2,2.38a9.7,9.7 0 0 1 -7.62,7.31a9.81,9.81 0 0 1 -5.19,-0.39a10,10 0 0 1 -4.61,-3.43a9.83,9.83 0 0 1 0,-11.71a9.1,9.1 0 0 1 2.1,-2.1a9.23,9.23 0 0 1 2.51,-1.34a9.77,9.77 0 0 1 9.32,1.46a9.68,9.68 0 0 1 3.5,5.44a7.28,7.28 0 0 1 0.23,2.38z" fill="#263238" id="svg_175"/>
   <path d="m405,347.49a6.5,6.5 0 1 1 -6.5,-6.49a6.49,6.49 0 0 1 6.5,6.49z" fill="#263238" id="svg_176"/>
   <path d="m405,347.49c-0.06,0 0,-0.58 -0.3,-1.56a6.54,6.54 0 0 0 -2.38,-3.45a6.33,6.33 0 0 0 -6,-0.86a6.3,6.3 0 0 0 -4.1,5.88a6.39,6.39 0 0 0 1.21,3.69a6.15,6.15 0 0 0 2.9,2.18a6.29,6.29 0 0 0 5.95,-0.86a6.44,6.44 0 0 0 2.37,-3.46c0.27,-1 0.24,-1.56 0.3,-1.56s0,0.14 0,0.42a5,5 0 0 1 -0.13,1.19a6.43,6.43 0 0 1 -2.35,3.7a6.69,6.69 0 0 1 -9.48,-1.31a6.69,6.69 0 0 1 0,-8a6.66,6.66 0 0 1 9.47,-1.32a6.41,6.41 0 0 1 2.35,3.69a4.66,4.66 0 0 1 0.14,1.2c0.11,0.29 0.1,0.43 0.05,0.43z" fill="#455a64" id="svg_177"/>
   <circle cx="374.89" cy="347.52" fill="#263238" id="svg_178" r="6.49" transform="translate(-136.25 354.05) rotate(-43.56)"/>
   <path d="m381.38,347.51c-0.05,0 0,-0.58 -0.3,-1.56a6.42,6.42 0 0 0 -2.38,-3.45a6.28,6.28 0 0 0 -10,5a6.25,6.25 0 0 0 1.21,3.69a6.14,6.14 0 0 0 2.89,2.18a6.32,6.32 0 0 0 5.95,-0.86a6.44,6.44 0 0 0 2.37,-3.46c0.27,-1 0.25,-1.56 0.3,-1.56a1.24,1.24 0 0 1 0,0.42a5.14,5.14 0 0 1 -0.14,1.19a6.46,6.46 0 0 1 -2.34,3.7a6.67,6.67 0 0 1 -6.34,1a6.54,6.54 0 0 1 -3.14,-2.33a6.68,6.68 0 0 1 -1.32,-4a6.76,6.76 0 0 1 1.31,-4a6.68,6.68 0 0 1 9.48,-1.33a6.46,6.46 0 0 1 2.35,3.7a5.76,5.76 0 0 1 0.14,1.19a1.24,1.24 0 0 1 -0.04,0.48z" fill="#455a64" id="svg_179"/>
   <path d="m368.61,330.29l-2.36,0l0,-2.36a2,2 0 0 0 -2,-2l-1.43,0a2,2 0 0 0 -2,2l0,2.36l-2.36,0a2,2 0 0 0 -2,2l0,1.42a2,2 0 0 0 2,2l2.37,0l0,2.29a2,2 0 0 0 2,2l1.43,0a2,2 0 0 0 2,-2l0,-2.36l2.37,0a2,2 0 0 0 2,-2l0,-1.43a2,2 0 0 0 -2.02,-1.92z" fill="#fafafa" id="svg_180"/>
   <path d="m415.06,328.08a2.84,2.84 0 1 1 -2.84,-2.84a2.85,2.85 0 0 1 2.84,2.84z" fill="#fafafa" id="svg_181"/>
   <path d="m420.81,333.09a2.85,2.85 0 1 1 -2.85,-2.83a2.85,2.85 0 0 1 2.85,2.83z" fill="#fafafa" id="svg_182"/>
   <path d="m415.07,337.71a2.84,2.84 0 1 1 -2.84,-2.84a2.85,2.85 0 0 1 2.84,2.84z" fill="#fafafa" id="svg_183"/>
   <path d="m409.08,333.18a2.84,2.84 0 1 1 -2.84,-2.84a2.85,2.85 0 0 1 2.84,2.84z" fill="#fafafa" id="svg_184"/>
   <path d="m400.35,321.9c-4.79,1.42 -9.25,0.55 -13.49,0.67a96.8,96.8 0 0 1 -11.72,-0.52a9.88,9.88 0 0 0 0.12,1.22l1.26,8.72a3.6,3.6 0 0 0 0.67,1.91a3.51,3.51 0 0 0 2.27,0.87a97.42,97.42 0 0 0 10.38,0.68a23.06,23.06 0 0 0 7.22,-0.79a2.25,2.25 0 0 0 0.93,-0.49a2.34,2.34 0 0 0 0.43,-0.81a40.49,40.49 0 0 0 2.34,-11.57l-0.41,0.11z" fill="#263238" id="svg_185"/>
   <path d="m276,361.06c-0.14,0.85 -0.57,1.27 -1.27,1.28a1.09,1.09 0 0 1 -0.65,-0.2a1.47,1.47 0 0 1 -0.6,-1.31l2.9,-21.5a3,3 0 0 1 0.07,-0.51a1.13,1.13 0 0 1 1.09,-0.72a1.17,1.17 0 0 1 0.57,0.16a1.23,1.23 0 0 1 0.66,1.06l-1,8.39q7.71,-8.62 8.09,-8.95a1.59,1.59 0 0 1 1.07,-0.55a1.23,1.23 0 0 1 0.64,0.19a1.14,1.14 0 0 1 0.59,1a1.81,1.81 0 0 1 -0.34,1q-0.42,0.54 -9.66,10.69l2.28,2.07q6.57,5.91 7.47,6.82a1.72,1.72 0 0 1 0.59,1.1a1.2,1.2 0 0 1 -0.21,0.67a1.15,1.15 0 0 1 -1,0.57a1.67,1.67 0 0 1 -1,-0.34q-0.52,-0.37 -9.26,-8.42c-0.49,3.91 -0.82,6.44 -1.03,7.5z" fill="#263238" id="svg_186"/>
   <path d="m294.69,361.09c-0.15,0.85 -0.57,1.28 -1.24,1.29a1.13,1.13 0 0 1 -0.67,-0.21a1.45,1.45 0 0 1 -0.61,-1.31l2.89,-21.5a3.4,3.4 0 0 1 0.06,-0.46a1.16,1.16 0 0 1 1.15,-0.76a1.25,1.25 0 0 1 0.59,0.14a1.17,1.17 0 0 1 0.65,1q-2.67,21.06 -2.82,21.81z" fill="#263238" id="svg_187"/>
   <path d="m315.84,361.12c-0.11,0.81 -0.52,1.21 -1.24,1.22a1.58,1.58 0 0 1 -1.33,-0.92l-7.9,-18.05c-0.1,0.85 -0.22,1.81 -0.36,2.87q-1.56,13 -1.87,14.82c-0.14,0.85 -0.57,1.27 -1.28,1.28a1.15,1.15 0 0 1 -0.67,-0.2a1.45,1.45 0 0 1 -0.61,-1.31q2.82,-21.45 2.84,-21.51a1.74,1.74 0 0 1 0.17,-0.5a1.29,1.29 0 0 1 1.16,-0.64c0.68,0 1.11,0.2 1.31,0.61l7.87,17.67l2.29,-17.08a1.33,1.33 0 0 1 0.15,-0.54a1.07,1.07 0 0 1 1,-0.69a1.29,1.29 0 0 1 0.62,0.17a1.19,1.19 0 0 1 0.59,1.07c0,0.35 -0.09,0.73 -0.14,1.14q-2.24,18.47 -2.6,20.59z" fill="#263238" id="svg_188"/>
   <path d="m330.08,350.1l5.81,0a1.22,1.22 0 0 1 0.62,0.16a1.17,1.17 0 0 1 0.63,1.09a1.32,1.32 0 0 1 -0.05,0.37c-0.11,0.49 -0.24,1 -0.39,1.49a16.48,16.48 0 0 1 -3.64,6.57a6.86,6.86 0 0 1 -4.95,2.56a5.58,5.58 0 0 1 -0.7,0a5.65,5.65 0 0 1 -4,-2.86a13,13 0 0 1 -1.74,-7a18.8,18.8 0 0 1 0.69,-5a16.71,16.71 0 0 1 3.45,-6.73a7,7 0 0 1 5.29,-2.75a4.89,4.89 0 0 1 2.2,0.5a7.11,7.11 0 0 1 3.39,4.24a1.34,1.34 0 0 1 0.14,0.58a1.29,1.29 0 0 1 -0.17,0.62a1.18,1.18 0 0 1 -1.08,0.62a1.32,1.32 0 0 1 -0.39,-0.06a1.16,1.16 0 0 1 -0.8,-0.78l-0.06,-0.11a6.38,6.38 0 0 0 -0.7,-1.38a3.35,3.35 0 0 0 -2.78,-1.66a3.29,3.29 0 0 0 -1.93,0.71a10.38,10.38 0 0 0 -3.17,4.55a17.31,17.31 0 0 0 -1.37,6.56a11.7,11.7 0 0 0 1,5.15q1.11,2.28 3,2.28a4.19,4.19 0 0 0 2.81,-1.7a15.51,15.51 0 0 0 3,-5.39c-2.67,0 -4.06,0 -4.17,-0.05c-0.9,-0.15 -1.37,-0.62 -1.39,-1.41a1.47,1.47 0 0 1 0.13,-0.42a1.31,1.31 0 0 1 1.32,-0.75z" fill="#263238" id="svg_189"/>
   <path d="m341,324.24l0.5,0.91a6,6 0 0 0 2.43,2.43l0.91,0.51l-0.91,0.5a6,6 0 0 0 -2.43,2.43l-0.5,0.91l-0.5,-0.91a6.13,6.13 0 0 0 -2.44,-2.43l-0.91,-0.5l0.91,-0.51a6.13,6.13 0 0 0 2.44,-2.43l0.5,-0.91z" fill="#e0e0e0" id="svg_190"/>
   <path d="m382.4,363.33l0.5,0.92a6.11,6.11 0 0 0 2.43,2.43l0.91,0.5l-0.91,0.5a6.11,6.11 0 0 0 -2.43,2.43l-0.5,0.92l-0.5,-0.92a6.2,6.2 0 0 0 -2.44,-2.43l-0.91,-0.5l0.91,-0.5a6.2,6.2 0 0 0 2.44,-2.43l0.5,-0.92z" fill="#e0e0e0" id="svg_191"/>
   <path d="m425,320l0.5,0.91a6,6 0 0 0 2.43,2.43l0.91,0.5l-0.91,0.5a6.13,6.13 0 0 0 -2.43,2.44l-0.5,0.91l-0.5,-0.91a6.22,6.22 0 0 0 -2.44,-2.44l-0.91,-0.5l0.91,-0.5a6.13,6.13 0 0 0 2.44,-2.43l0.5,-0.91z" fill="#e0e0e0" id="svg_192"/>
   <path d="m330.49,367.15l0.25,0.46a3.15,3.15 0 0 0 1.22,1.21l0.46,0.25l-0.46,0.25a3.18,3.18 0 0 0 -1.22,1.22l-0.25,0.46l-0.25,-0.46a3.09,3.09 0 0 0 -1.21,-1.22l-0.46,-0.25l0.46,-0.25a3.06,3.06 0 0 0 1.21,-1.21l0.25,-0.46z" fill="#e0e0e0" id="svg_193"/>
   <path d="m387.73,358.91l0.25,0.46a3.15,3.15 0 0 0 1.22,1.21l0.46,0.25l-0.46,0.25a3.11,3.11 0 0 0 -1.2,1.22l-0.25,0.45l-0.25,-0.45a3,3 0 0 0 -1.21,-1.22l-0.46,-0.25l0.46,-0.25a3.06,3.06 0 0 0 1.21,-1.21l0.23,-0.46z" fill="#e0e0e0" id="svg_194"/>
  </g>
  <g id="freepik--Character--inject-48">
   <path d="m103.73,427.58l-1.46,20.47s20.35,6.86 20.45,10.67l-39.83,0.1l1,-32l19.84,0.76z" fill="#7E57C2" id="svg_205"/>
   <g id="svg_206" opacity="0.6">
    <path d="m90,445.89a1.64,1.64 0 0 0 -1.19,1.82a1.57,1.57 0 0 0 1.79,1.19a1.71,1.71 0 0 0 1.27,-1.9a1.61,1.61 0 0 0 -2,-1" fill="#fff" id="svg_207"/>
   </g>
   <g id="svg_208" opacity="0.6">
    <path d="m82.89,458.82l0.1,-3.23l38.46,1.25a2.77,2.77 0 0 1 1.47,2.17l-40.03,-0.19z" fill="#fff" id="svg_209"/>
   </g>
   <path d="m102.92,447.87c0,0.19 -1,0.25 -2,0.84s-1.51,1.39 -1.69,1.31s0.16,-1.2 1.35,-1.9s2.42,-0.43 2.34,-0.25z" fill="#263238" id="svg_210"/>
   <path d="m107,449.74c0,0.19 -0.81,0.49 -1.5,1.29s-0.91,1.66 -1.1,1.65s-0.28,-1.12 0.59,-2.1s2.01,-1.02 2.01,-0.84z" fill="#263238" id="svg_211"/>
   <path d="m109.23,454.82c-0.18,0 -0.41,-0.94 0.12,-2s1.46,-1.44 1.54,-1.27s-0.51,0.71 -0.93,1.58s-0.54,1.68 -0.73,1.69z" fill="#263238" id="svg_212"/>
   <path d="m102.74,443.17c-0.09,0.17 -1,-0.13 -2.08,-0.09s-2,0.35 -2.06,0.18s0.75,-0.83 2.05,-0.86s2.19,0.6 2.09,0.77z" fill="#263238" id="svg_213"/>
   <g id="svg_214" opacity="0.3">
    <polygon id="svg_215" points="102.68 442.28 102.41 446.05 83.29 445.21 83.39 441.91 102.68 442.28"/>
   </g>
   <path d="m103,439a3.78,3.78 0 0 1 -2,-0.08a9,9 0 0 1 -2.06,-0.71a10.18,10.18 0 0 1 -1.13,-0.65a2.7,2.7 0 0 1 -0.58,-0.49a0.85,0.85 0 0 1 0,-1a1,1 0 0 1 0.86,-0.41a2.66,2.66 0 0 1 0.75,0.13a6.31,6.31 0 0 1 1.22,0.47a7,7 0 0 1 1.8,1.27c0.89,0.88 1.18,1.62 1.11,1.66s-0.52,-0.57 -1.43,-1.3a7.87,7.87 0 0 0 -1.74,-1.07a7.5,7.5 0 0 0 -1.13,-0.39c-0.42,-0.13 -0.78,-0.14 -0.9,0s0,0.1 0,0.23a2.08,2.08 0 0 0 0.43,0.35a9.62,9.62 0 0 0 1,0.64a11.11,11.11 0 0 0 1.9,0.81a15.17,15.17 0 0 1 1.9,0.54z" fill="#263238" id="svg_216"/>
   <path d="m102.69,439.3a3.17,3.17 0 0 1 -0.46,-1.94a6.53,6.53 0 0 1 0.35,-2.18a7.4,7.4 0 0 1 0.55,-1.19a1.66,1.66 0 0 1 1.31,-1a0.93,0.93 0 0 1 0.81,0.59a2.77,2.77 0 0 1 0.18,0.73a4.32,4.32 0 0 1 -0.05,1.35a4.55,4.55 0 0 1 -0.92,2c-0.81,1 -1.63,1.2 -1.65,1.14s0.63,-0.45 1.26,-1.42a4.61,4.61 0 0 0 0.7,-1.86a4,4 0 0 0 0,-1.15c0,-0.42 -0.19,-0.77 -0.35,-0.73s-0.55,0.29 -0.72,0.63a6.17,6.17 0 0 0 -0.53,1.06a7,7 0 0 0 -0.46,2c-0.09,1.21 0.09,1.95 -0.02,1.97z" fill="#263238" id="svg_217"/>
   <path d="m145.14,431l-3.38,18.59s17.93,8.32 17.64,11.81l-36.4,-3.93l4,-29.18l18.14,2.71z" fill="#7E57C2" id="svg_218"/>
   <g id="svg_219" opacity="0.6">
    <path d="m130.77,446.35a1.5,1.5 0 0 0 -1.27,1.55a1.44,1.44 0 0 0 1.52,1.27a1.58,1.58 0 0 0 1.33,-1.64a1.49,1.49 0 0 0 -1.72,-1.15" fill="#fff" id="svg_220"/>
   </g>
   <g id="svg_221" opacity="0.6">
    <path d="m123,457.47l0.41,-2.94l35.07,5a2.52,2.52 0 0 1 1.13,2.13l-36.61,-4.19z" fill="#fff" id="svg_222"/>
   </g>
   <path d="m142.37,449.45c0,0.18 -0.93,0.13 -1.88,0.57s-1.53,1.12 -1.68,1s0.26,-1.08 1.42,-1.6s2.2,-0.12 2.14,0.03z" fill="#263238" id="svg_223"/>
   <path d="m146,451.58c0,0.18 -0.8,0.36 -1.51,1s-1,1.43 -1.17,1.39s-0.14,-1.05 0.76,-1.85s1.92,-0.71 1.92,-0.54z" fill="#263238" id="svg_224"/>
   <path d="m147.45,456.45c-0.17,0 -0.28,-0.91 0.31,-1.82s1.48,-1.17 1.54,-1s-0.54,0.61 -1,1.36s-0.67,1.46 -0.85,1.46z" fill="#263238" id="svg_225"/>
   <path d="m142.67,445.13c-0.09,0.15 -0.87,-0.21 -1.88,-0.29s-1.84,0.13 -1.91,0s0.77,-0.69 2,-0.58s1.9,0.74 1.79,0.87z" fill="#263238" id="svg_226"/>
   <g id="svg_227" opacity="0.3">
    <polygon id="svg_228" points="143.21 441.49 142.3 446.64 124.81 443.88 125.22 440.88 143.21 441.49"/>
   </g>
   <path d="m143.29,441.37a3.49,3.49 0 0 1 -1.82,-0.28a7.93,7.93 0 0 1 -1.82,-0.86a8.32,8.32 0 0 1 -1,-0.7a2.41,2.41 0 0 1 -0.49,-0.51a0.77,0.77 0 0 1 0.06,-0.95a1,1 0 0 1 0.83,-0.29a2.31,2.31 0 0 1 0.67,0.19a6.36,6.36 0 0 1 2.59,1.89a3.16,3.16 0 0 1 0.86,1.63c-0.09,0.05 -0.42,-0.56 -1.19,-1.33a7.46,7.46 0 0 0 -1.48,-1.15a6.13,6.13 0 0 0 -1,-0.47c-0.37,-0.16 -0.7,-0.21 -0.82,-0.05s-0.05,0.08 0,0.21a2,2 0 0 0 0.36,0.37c0.29,0.25 0.59,0.48 0.88,0.69a10.53,10.53 0 0 0 1.66,0.92a11.76,11.76 0 0 1 1.71,0.69z" fill="#263238" id="svg_229"/>
   <path d="m143,441.59a2.9,2.9 0 0 1 -0.23,-1.83a6.06,6.06 0 0 1 0.54,-1.95a5.94,5.94 0 0 1 0.62,-1a1.55,1.55 0 0 1 1.29,-0.75a0.87,0.87 0 0 1 0.69,0.62a2.57,2.57 0 0 1 0.09,0.69a3.77,3.77 0 0 1 -0.18,1.23a4.18,4.18 0 0 1 -1,1.76c-0.85,0.84 -1.62,0.94 -1.63,0.88s0.63,-0.35 1.3,-1.17a4.3,4.3 0 0 0 0.82,-1.63a3.6,3.6 0 0 0 0.12,-1c0,-0.4 -0.1,-0.73 -0.25,-0.71s-0.53,0.22 -0.72,0.5a6.28,6.28 0 0 0 -0.6,0.92a6.66,6.66 0 0 0 -0.61,1.77c-0.25,0.96 -0.13,1.65 -0.25,1.67z" fill="#263238" id="svg_230"/>
   <polygon fill="#263238" id="svg_231" points="145.51 443.87 159.79 358.8 130.66 362.69 123.83 440.68 145.51 443.87"/>
   <polygon fill="#263238" id="svg_232" points="118.44 270.19 80.98 268.86 80.98 268.86 80.12 442.73 105.67 443.21 119.76 307.76 118.44 270.19"/>
   <polygon fill="#263238" id="svg_233" points="136.89 266.64 159.79 358.8 131.11 366.85 117.51 320.68 107.24 276.53 136.89 266.64"/>
   <path d="m121.9,295.27a2,2 0 0 1 0,0.56c-0.05,0.43 -0.11,1 -0.19,1.6c-0.19,1.46 -0.45,3.45 -0.77,5.88c-0.67,5 -1.58,11.84 -2.59,19.37s-1.82,14.44 -2.34,19.41c-0.27,2.49 -0.46,4.5 -0.58,5.89c-0.05,0.65 -0.1,1.18 -0.14,1.61a2.23,2.23 0 0 1 -0.09,0.56a3.61,3.61 0 0 1 0,-0.57c0,-0.42 0,-1 0,-1.61c0.06,-1.4 0.19,-3.42 0.41,-5.92c0.43,-5 1.21,-11.86 2.2,-19.43s2,-14.42 2.74,-19.36c0.38,-2.42 0.7,-4.4 0.93,-5.86c0.12,-0.64 0.21,-1.16 0.29,-1.58a2.41,2.41 0 0 1 0.13,-0.55z" fill="#455a64" id="svg_234"/>
   <path d="m85.1,273c0.14,0 0.71,38 1.27,84.8s0.9,84.82 0.75,84.82s-0.71,-38 -1.27,-84.81s-0.85,-84.81 -0.75,-84.81z" fill="#fff" id="svg_235"/>
   <path d="m90.3,274c0.14,0 0.31,37.54 0.38,83.84s0,83.85 -0.15,83.85s-0.31,-37.53 -0.37,-83.85s0,-83.84 0.14,-83.84z" fill="#fff" id="svg_236"/>
   <path d="m121.29,276.76a3,3 0 0 1 1.18,-0.31a7.08,7.08 0 0 1 3.3,0.4a6,6 0 0 1 2,1.18a1.45,1.45 0 0 1 0.38,0.62a1,1 0 0 1 -0.13,0.8a1.81,1.81 0 0 1 -1.33,0.69a5.67,5.67 0 0 1 -5.32,-2.66l-0.06,-0.1l0.45,0a12.51,12.51 0 0 1 -1.76,2.62a3.78,3.78 0 0 1 -2.67,1.33a1.94,1.94 0 0 1 -1.35,-0.6a1.58,1.58 0 0 1 -0.38,-1.36a3.1,3.1 0 0 1 1.42,-1.88a5.55,5.55 0 0 1 3.19,-0.87a2.55,2.55 0 0 1 1.18,0.24s-0.43,-0.06 -1.18,0a5.54,5.54 0 0 0 -3,1a2.73,2.73 0 0 0 -1.21,1.65a1.13,1.13 0 0 0 0.29,1a1.52,1.52 0 0 0 1,0.43a3.35,3.35 0 0 0 2.29,-1.21a11.87,11.87 0 0 0 1.66,-2.49l0.22,-0.39l0.24,0.38l0,0.09a5.27,5.27 0 0 0 4.83,2.46a1.44,1.44 0 0 0 1,-0.47a0.69,0.69 0 0 0 -0.18,-0.87a6,6 0 0 0 -1.85,-1.14a7.43,7.43 0 0 0 -3.16,-0.54c-0.62,-0.07 -1.04,0.04 -1.05,0z" fill="#455a64" id="svg_237"/>
   <path d="m98.4,279.82a15.87,15.87 0 0 1 -2.2,5.23a16,16 0 0 1 -3.49,4.47c-0.12,-0.1 1.48,-2 3,-4.73s2.54,-5.02 2.69,-4.97z" fill="#455a64" id="svg_238"/>
   <path d="m141.11,283.13a16.11,16.11 0 0 1 -4.65,-3a15.9,15.9 0 0 1 -3.75,-4c0.11,-0.11 1.77,1.71 4.09,3.64s4.39,3.23 4.31,3.36z" fill="#455a64" id="svg_239"/>
   <path d="m98.36,169.3a10.17,10.17 0 0 0 -10.36,2.6a19,19 0 0 1 -2.62,2.76c-2.36,1.65 -5.69,0.91 -8.29,2.15a6.76,6.76 0 0 0 -3.41,7.4a8.6,8.6 0 0 0 5.8,6.08a11.89,11.89 0 0 0 8.56,-0.75a19.66,19.66 0 0 0 6.76,-5.5c3.32,-4 5.57,-9.23 5,-14.43" fill="#7E57C2" id="svg_240"/>
   <path d="m97.77,169.54l-3.09,7.87l-18.34,11.42l8.94,58s-7.53,12.59 -7.38,21.87l0,0.07a2.68,2.68 0 0 0 2.18,2.58c5.7,1.15 24.51,4.61 37.22,3.38c14.61,-1.36 20.7,-3.73 20.7,-3.73l2,-8.62l-2.47,-7.38l-3.38,-58.75s-1.31,-10 -3.56,-12.68l-6.47,-5l-3.5,-6.22l-22.85,-2.81z" fill="#7E57C2" id="svg_241"/>
   <path d="m125.24,179.45c7.38,2.44 14.55,5.82 14.73,20.33s1.3,47.31 1.3,47.31l-13.09,-6l-2.94,-53.23l0,-8.41z" fill="#7E57C2" id="svg_242"/>
   <g id="svg_243" opacity="0.3">
    <path d="m79.73,259a58.51,58.51 0 0 0 10.27,1.69a18.16,18.16 0 0 0 9.66,-2a36.53,36.53 0 0 0 5.67,-4.43c4.85,-4.19 10.35,-7.54 15.83,-10.87l8.83,-5.37a6.37,6.37 0 0 0 2,-1.65a2.2,2.2 0 0 0 0.17,-2.45a2.17,2.17 0 0 0 -2.12,-0.73a6.25,6.25 0 0 0 -2.16,0.92l-9.64,5.63c-11.81,6.89 -24,13.92 -37.5,16l-1.01,3.26z" id="svg_244"/>
   </g>
   <path d="m92.39,230.59a1.06,1.06 0 0 1 0.39,-0.52l1.81,-1.3a1,1 0 0 0 0.44,-0.91l-0.49,-8.45l0,-0.08c0,-0.94 0.42,-19.48 -1.68,-25.55c-2,-5.88 -7.13,-9.09 -16.36,-5.77a24.32,24.32 0 0 0 -2.21,2.42l0,0a19.69,19.69 0 0 0 -2.89,9.64l-0.66,19.93s-1.83,18.38 -2.09,20.87c-0.66,6.2 1.59,16.24 6.86,17c2.38,0.33 17.79,-2.87 20.84,-3.71a6.46,6.46 0 0 0 2.15,-2.5l1.93,-19a1.66,1.66 0 0 0 -1.59,-1.82l-6.45,-0.25z" fill="#7E57C2" id="svg_245"/>
   <path d="m95.09,203.75a6.08,6.08 0 0 1 0.1,1.13c0,0.82 0.07,1.86 0.12,3.09c0.08,2.61 0.16,6.22 0.22,10.21c0,2 0,3.88 0.06,5.62a8.11,8.11 0 0 1 -0.88,4.54a6.87,6.87 0 0 1 -2.25,2.17a3.19,3.19 0 0 1 -1,0.47s0.35,-0.2 0.94,-0.62a7.1,7.1 0 0 0 2.07,-2.19a8,8 0 0 0 0.74,-4.36c0,-1.74 -0.07,-3.64 -0.1,-5.62c-0.06,-4 -0.09,-7.6 -0.08,-10.21c0,-1.24 0,-2.27 0,-3.1a4.62,4.62 0 0 1 0.06,-1.13z" fill="#263238" id="svg_246"/>
   <path d="m84.73,239.61a4.27,4.27 0 0 1 0.27,-1.61a11,11 0 0 1 1.78,-3.5a9.71,9.71 0 0 1 3,-2.6a3.69,3.69 0 0 1 1.52,-0.6a15.3,15.3 0 0 0 -4.11,3.47a19.64,19.64 0 0 0 -2.46,4.84z" fill="#263238" id="svg_247"/>
   <path d="m81.14,235.18a4.37,4.37 0 0 1 1.06,-1.38a10.72,10.72 0 0 1 3.52,-2.31a10.57,10.57 0 0 1 4.13,-0.76a4.26,4.26 0 0 1 1.72,0.27a13,13 0 0 1 -1.71,0.05a12.28,12.28 0 0 0 -7.44,3a13.1,13.1 0 0 1 -1.28,1.13z" fill="#263238" id="svg_248"/>
   <g id="svg_249" opacity="0.3">
    <path d="m91.24,230.75a13.32,13.32 0 0 0 -13,2.73c-0.44,0.4 -0.88,1 -0.71,1.51a1.12,1.12 0 0 0 1,0.73a2.77,2.77 0 0 0 1.26,-0.23a44.46,44.46 0 0 0 5.64,-3a10.1,10.1 0 0 1 6.12,-1.54" id="svg_250"/>
   </g>
   <path d="m136.17,225.87c2.24,9.73 5.34,19.31 6.29,29.25c0.43,4.47 0.33,9.29 -2.15,13a9.44,9.44 0 0 1 -3.85,3.43" fill="#7E57C2" id="svg_251"/>
   <path d="m134.29,195.86a1.47,1.47 0 0 1 0.06,0.47c0,0.37 0.05,0.82 0.08,1.35c0,1.26 0.13,2.94 0.21,5c0.18,4.2 0.43,10 0.88,16.38s1.1,12.16 1.66,16.31c0.28,2.08 0.52,3.77 0.7,4.93l0.19,1.34a1.4,1.4 0 0 1 0,0.47a1.61,1.61 0 0 1 -0.13,-0.46c-0.08,-0.36 -0.17,-0.79 -0.29,-1.32c-0.24,-1.15 -0.53,-2.83 -0.86,-4.9c-0.66,-4.16 -1.35,-9.93 -1.82,-16.33s-0.64,-12.21 -0.72,-16.41c0,-2.1 -0.06,-3.8 -0.05,-5c0,-0.54 0,-1 0,-1.36a1.57,1.57 0 0 1 0.09,-0.47z" fill="#263238" id="svg_252"/>
   <path d="m93.19,175.51s-0.23,0.26 -0.7,0.66s-1.17,1 -2,1.62c-1.76,1.33 -4.26,3.07 -7,5s-5.16,3.77 -6.84,5.18s-2.67,2.34 -2.73,2.28a3.48,3.48 0 0 1 0.61,-0.74c0.42,-0.45 1.06,-1.08 1.88,-1.82a72.58,72.58 0 0 1 6.78,-5.33c2.75,-1.93 5.27,-3.62 7.08,-4.87a29.47,29.47 0 0 1 2.92,-1.98z" fill="#263238" id="svg_253"/>
   <polygon fill="#7E57C2" id="svg_254" points="100.21 232.16 104.71 230.27 104.71 249.65 96.89 252.59 100.21 232.16"/>
   <path d="m89.14,232.24a5.62,5.62 0 0 1 1.24,-0.24l3.38,-0.44l2.35,-0.28l1.3,-0.15a7.45,7.45 0 0 1 1.44,-0.08a1.9,1.9 0 0 1 1.43,0.77a2.69,2.69 0 0 1 0.36,1.62c-0.1,1.09 -0.33,2.11 -0.49,3.2c-0.7,4.34 -1.24,8.29 -1.73,11.14c-0.24,1.42 -0.46,2.57 -0.62,3.36a5.06,5.06 0 0 1 -0.31,1.22a6.79,6.79 0 0 1 0.11,-1.25c0.12,-0.9 0.27,-2 0.46,-3.38c0.39,-2.86 0.87,-6.82 1.58,-11.17c0.15,-1.08 0.4,-2.17 0.49,-3.14a2.19,2.19 0 0 0 -0.26,-1.32a1.43,1.43 0 0 0 -1.07,-0.57a20.93,20.93 0 0 0 -2.65,0.18l-2.35,0.22l-3.4,0.28a6.71,6.71 0 0 1 -1.26,0.03z" fill="#263238" id="svg_255"/>
   <path d="m104.44,234.82a7.48,7.48 0 0 1 -2.36,1.45a7.5,7.5 0 0 1 -2.6,1a7.6,7.6 0 0 1 2.37,-1.45a7.56,7.56 0 0 1 2.59,-1z" fill="#263238" id="svg_256"/>
   <path d="m104.71,243.15a16.63,16.63 0 0 1 -3.09,1.45a8.57,8.57 0 0 1 -3.29,1a16.63,16.63 0 0 1 3.09,-1.45a8.79,8.79 0 0 1 3.29,-1z" fill="#263238" id="svg_257"/>
   <path d="m97.82,252.24a10.91,10.91 0 0 1 1.84,-0.83c1.19,-0.49 2.91,-1.17 5,-2l-0.14,0.21c0,-2.47 0,-5.35 0,-8.45c0,-4.25 0,-8.11 0.07,-10.93l0.26,0.17l-3.33,1.31a7.41,7.41 0 0 1 -1.24,0.41a5.54,5.54 0 0 1 1.16,-0.61l3.27,-1.45l0.25,-0.12l0,0.29c0,2.82 0.07,6.68 0.07,10.93c0,3.1 0,6 0,8.45l0,0.15l-0.14,0.06c-2.09,0.75 -3.82,1.37 -5,1.79a12.83,12.83 0 0 1 -2.07,0.62z" fill="#263238" id="svg_258"/>
   <path d="m116.8,181a2.13,2.13 0 0 1 -0.71,0.33a8.5,8.5 0 0 1 -2.1,0.45a13.9,13.9 0 0 1 -6.9,-1.26a27.27,27.27 0 0 1 -5.91,-3.79a15.52,15.52 0 0 1 -2.18,-1.92a17.17,17.17 0 0 1 2.38,1.65a33.78,33.78 0 0 0 5.89,3.6a14.84,14.84 0 0 0 6.67,1.37a27.09,27.09 0 0 0 2.86,-0.43z" fill="#263238" id="svg_259"/>
   <path d="m119,178.8c0.1,0.1 -0.07,0.46 -0.38,0.82s-0.66,0.57 -0.77,0.47s0.06,-0.46 0.38,-0.82s0.62,-0.56 0.77,-0.47z" fill="#263238" id="svg_260"/>
   <path d="m115.17,249.47s0,0.28 -0.12,0.77a12.23,12.23 0 0 1 -0.67,2a17.68,17.68 0 0 1 -9.84,9.52a13.12,13.12 0 0 1 -2,0.6c-0.5,0.09 -0.77,0.13 -0.78,0.09s1.06,-0.33 2.67,-1a19.19,19.19 0 0 0 9.57,-9.35c0.8,-1.59 1.08,-2.65 1.17,-2.63z" fill="#263238" id="svg_261"/>
   <path d="m133.33,245.6a9.84,9.84 0 0 1 -2.13,0.69c-1.34,0.35 -3.2,0.78 -5.27,1.17s-4,0.67 -5.34,0.83a8.83,8.83 0 0 1 -2.24,0.13a11.11,11.11 0 0 1 2.18,-0.5l5.3,-1l5.29,-1a9.5,9.5 0 0 1 2.21,-0.32z" fill="#263238" id="svg_262"/>
   <path d="m154.27,207.71l-6.06,2.81l-2.84,2.88s6.61,-0.78 6.79,0.33s0.2,2.37 -0.24,2.72a7.39,7.39 0 0 0 -1.08,1.39s1.59,1.77 1,2.68a10.34,10.34 0 0 0 -1,1.83l-0.94,-0.08s0.1,3.44 -0.62,3.91a2.82,2.82 0 0 1 -1.56,0.66a29,29 0 0 1 -3,0.28l-1.09,-0.1s-5.67,7.14 -7.7,7s-5.77,-0.24 -5.77,-0.24a76.79,76.79 0 0 1 -31.81,18.49l1.45,-16.54l0.2,-3l31.24,-11.24l11.11,-12.39l5.2,-2.55l7.57,-1.66a2.58,2.58 0 0 1 -0.85,2.82z" fill="#ffbe9d" id="svg_263"/>
   <path d="m130.15,233.75l1.14,0l3.27,0.08l1.12,0a1.81,1.81 0 0 0 1.12,-0.25a11.43,11.43 0 0 0 2.17,-1.69a52.06,52.06 0 0 0 4.52,-5l0.06,-0.07l0.09,0l1.08,0.09l0,0c0.66,0 1.34,-0.08 2,-0.16a9.27,9.27 0 0 0 1,-0.14a2.54,2.54 0 0 0 0.95,-0.32l0.46,-0.31a0.86,0.86 0 0 0 0.22,-0.37a5,5 0 0 0 0.22,-1.06a19.59,19.59 0 0 0 0.08,-2.31l0,-0.24l0.24,0l0.94,0.08l-0.21,0.13a9.67,9.67 0 0 1 0.53,-1.13c0.17,-0.37 0.53,-0.76 0.55,-1a2.07,2.07 0 0 0 -0.34,-1.1a5.53,5.53 0 0 0 -0.72,-1l-0.11,-0.13l0.08,-0.14a10.9,10.9 0 0 1 0.82,-1.14c0.09,-0.09 0.17,-0.18 0.27,-0.27a0.51,0.51 0 0 0 0.16,-0.2a1.88,1.88 0 0 0 0.13,-0.6a7,7 0 0 0 0,-1.37l-0.05,-0.35c0,-0.06 0,-0.07 -0.1,-0.13a1.92,1.92 0 0 0 -0.6,-0.19a26.85,26.85 0 0 0 -5.85,0.16l-0.63,0.06l0.44,-0.45l0.11,-0.1l2.74,-2.78l0,0l0,0l6.06,-2.8l0,0a2.38,2.38 0 0 0 0.78,-2.63l0.25,0.14l-7.58,1.65l0,0l-5.21,2.53l0.05,-0.05l-8.16,9l-2.26,2.45l-0.6,0.63l-0.22,0.21s0.05,-0.09 0.18,-0.24l0.56,-0.67l2.19,-2.51c1.93,-2.19 4.68,-5.3 8.05,-9.09l0,0l0,0l5.19,-2.56l0.05,0l7.56,-1.68l0.2,0l0.05,0.18a2.78,2.78 0 0 1 -0.9,3.13l0,0l0,0l-6.05,2.8l0.06,0l-2.74,2.78l-0.1,0.1l-0.19,-0.38c1,-0.12 2,-0.2 3,-0.25a16.5,16.5 0 0 1 3,0.09a2.15,2.15 0 0 1 0.76,0.26a0.62,0.62 0 0 1 0.3,0.44l0.05,0.36a7.21,7.21 0 0 1 0,1.47a2.41,2.41 0 0 1 -0.18,0.75a1,1 0 0 1 -0.27,0.35a2.28,2.28 0 0 0 -0.22,0.22a8.22,8.22 0 0 0 -0.71,0.97l0,-0.26a6.53,6.53 0 0 1 0.78,1.11a2.54,2.54 0 0 1 0.38,1.35a1.53,1.53 0 0 1 -0.29,0.67c-0.11,0.17 -0.21,0.34 -0.31,0.52a11.77,11.77 0 0 0 -0.52,1.08l-0.06,0.15l-0.15,0l-1,-0.09l0.23,-0.21a18.4,18.4 0 0 1 -0.1,2.36a5.83,5.83 0 0 1 -0.24,1.16a1.22,1.22 0 0 1 -0.38,0.56l-0.46,0.31a2.81,2.81 0 0 1 -1.1,0.37a10.12,10.12 0 0 1 -1.07,0.14c-0.7,0.07 -1.39,0.11 -2.05,0.14l0,0l-1.08,-0.1l0.15,-0.06a50.36,50.36 0 0 1 -4.6,5a11.1,11.1 0 0 1 -2.25,1.7a3.29,3.29 0 0 1 -0.62,0.23a2.26,2.26 0 0 1 -0.63,0l-1.12,-0.06l-3.25,-0.18l-0.85,-0.06l-0.26,-0.08z" fill="#eb996e" id="svg_264"/>
   <path d="m150.88,217.7c0,0.05 -0.38,-0.19 -1,-0.4a5.77,5.77 0 0 0 -2.5,-0.24a14.9,14.9 0 0 0 -2.5,0.57c-0.65,0.2 -1,0.3 -1.08,0.24s0.34,-0.27 1,-0.54a9.41,9.41 0 0 1 2.57,-0.72a5,5 0 0 1 2.63,0.39c0.64,0.31 0.92,0.66 0.88,0.7z" fill="#eb996e" id="svg_265"/>
   <path d="m149.93,222.44a1.06,1.06 0 0 0 -0.45,-0.78a4.8,4.8 0 0 0 -2.33,-0.22a14.89,14.89 0 0 0 -3.34,0.93a4.91,4.91 0 0 1 3.29,-1.37a6,6 0 0 1 1.42,0a2.25,2.25 0 0 1 1.14,0.39a1,1 0 0 1 0.39,0.75c-0.05,0.22 -0.05,0.31 -0.12,0.3z" fill="#eb996e" id="svg_266"/>
   <path d="m146.89,224.91c0,0.06 -0.27,0.18 -0.75,0.23a8.67,8.67 0 0 0 -1.75,0.24a1.24,1.24 0 0 0 -0.94,1.11c0,0.42 0.24,0.61 0.2,0.67s-0.41,-0.08 -0.52,-0.63a1.25,1.25 0 0 1 0.21,-0.92a1.87,1.87 0 0 1 0.9,-0.67a4.94,4.94 0 0 1 1.89,-0.12c0.46,0.03 0.74,0.03 0.76,0.09z" fill="#eb996e" id="svg_267"/>
   <path d="m97.27,139l1.07,31.45l11.14,7.31a7.31,7.31 0 0 0 11.23,-5l0,0l0,-3.76s8.94,-0.92 9.51,-9.78c0.28,-4.31 0.13,-13.25 -0.1,-21.3a16.43,16.43 0 0 0 -16.35,-16l0,0a16.44,16.44 0 0 0 -16.5,17.08z" fill="#ffbe9d" id="svg_268"/>
   <path d="m120.73,169a20.68,20.68 0 0 1 -11.39,-3.89s2.4,6.52 11.29,6.19l0.1,-2.3z" fill="#eb996e" id="svg_269"/>
   <path d="m128,144.27a1.27,1.27 0 0 1 -1.29,1.21a1.22,1.22 0 0 1 -1.25,-1.21a1.27,1.27 0 0 1 1.29,-1.21a1.22,1.22 0 0 1 1.25,1.21z" fill="#263238" id="svg_270"/>
   <path d="m128,142.45c-0.16,0.15 -1.09,-0.61 -2.45,-0.68s-2.4,0.57 -2.54,0.39s0.11,-0.37 0.56,-0.66a3.49,3.49 0 0 1 2,-0.51a3.21,3.21 0 0 1 1.94,0.74c0.49,0.34 0.56,0.65 0.49,0.72z" fill="#263238" id="svg_271"/>
   <path d="m114.62,144.16a1.27,1.27 0 0 1 -1.28,1.22a1.22,1.22 0 0 1 -1.25,-1.22a1.27,1.27 0 0 1 1.29,-1.21a1.2,1.2 0 0 1 1.24,1.21z" fill="#263238" id="svg_272"/>
   <path d="m114.58,142c-0.17,0.16 -1.09,-0.6 -2.45,-0.67s-2.4,0.56 -2.54,0.39s0.11,-0.37 0.56,-0.67a3.49,3.49 0 0 1 2,-0.51a3.34,3.34 0 0 1 1.94,0.74c0.44,0.34 0.57,0.65 0.49,0.72z" fill="#263238" id="svg_273"/>
   <path d="m119,152.37a9,9 0 0 1 2.23,-0.29c0.35,0 0.69,-0.07 0.76,-0.3a1.82,1.82 0 0 0 -0.18,-1.05l-0.89,-2.7c-1.23,-3.85 -2.11,-7 -2,-7.05a46.12,46.12 0 0 1 2.51,6.88l0.85,2.71a2.07,2.07 0 0 1 0.11,1.38a0.89,0.89 0 0 1 -0.6,0.48a2.17,2.17 0 0 1 -0.6,0a9.65,9.65 0 0 1 -2.19,-0.06z" fill="#263238" id="svg_274"/>
   <path d="m115.21,136.68c-0.15,0.36 -1.5,0.11 -3.11,0.22s-2.93,0.48 -3.12,0.14c-0.09,-0.17 0.15,-0.5 0.69,-0.84a5.28,5.28 0 0 1 2.35,-0.68a5.08,5.08 0 0 1 2.4,0.41c0.58,0.27 0.86,0.57 0.79,0.75z" fill="#263238" id="svg_275"/>
   <path d="m127.7,138.47c-0.26,0.3 -1.18,-0.07 -2.31,-0.14s-2.1,0.1 -2.3,-0.24c-0.09,-0.16 0.08,-0.46 0.51,-0.73a3.36,3.36 0 0 1 3.71,0.3c0.38,0.34 0.5,0.67 0.39,0.81z" fill="#263238" id="svg_276"/>
   <path d="m100.28,146.47c-0.15,-0.07 -6,-2.12 -6.13,3.95s6,5 6,4.77s0.13,-8.72 0.13,-8.72z" fill="#ffbe9d" id="svg_277"/>
   <path d="m98.36,152.86s-0.11,0.07 -0.29,0.15a1.11,1.11 0 0 1 -0.79,0a2.6,2.6 0 0 1 -1.16,-2.38a3.52,3.52 0 0 1 0.32,-1.51a1.22,1.22 0 0 1 0.82,-0.79a0.53,0.53 0 0 1 0.61,0.3c0.08,0.17 0,0.29 0.07,0.3s0.13,-0.1 0.09,-0.35a0.65,0.65 0 0 0 -0.23,-0.38a0.8,0.8 0 0 0 -0.58,-0.17a1.5,1.5 0 0 0 -1.13,0.92a3.67,3.67 0 0 0 -0.4,1.69a2.76,2.76 0 0 0 1.49,2.65a1.12,1.12 0 0 0 1,-0.14c0.16,-0.15 0.2,-0.28 0.18,-0.29z" fill="#eb996e" id="svg_278"/>
   <path d="m120.12,155.72a2,2 0 1 0 0,3" fill="#eb996e" id="svg_279"/>
   <path d="m119.53,158.91s-0.34,0.4 -1.12,0.33a2,2 0 0 1 -1.2,-0.59a2,2 0 0 1 0.38,-3a2,2 0 0 1 1.31,-0.27c0.77,0.12 1,0.58 1,0.6s-0.39,-0.22 -1,-0.23a1.67,1.67 0 0 0 -1,0.3a1.59,1.59 0 0 0 -0.29,2.26a1.77,1.77 0 0 0 0.9,0.55c0.58,0.14 0.99,-0.03 1.02,0.05z" fill="#263238" id="svg_280"/>
   <path d="m125.55,128.16c1,-0.55 -2,-3.78 -4.45,-4.9c-3.71,-1.68 -9.38,-2.72 -12.8,-1.75c-4.12,1.16 -8,2.77 -10.07,6.52s-2.41,8.7 -2.29,13c0,1.31 0.4,4.86 1.08,5.22c1.14,0.59 2.32,0.63 2.25,2.52a2.57,2.57 0 0 0 0.64,1.88c1.13,1.2 2.51,0.07 3.15,-1.06c1.35,-2.41 1.51,-5.3 1.63,-8.07a18.32,18.32 0 0 0 -0.39,-5.87c-0.3,-1 -0.79,-2 -1,-3a3.72,3.72 0 0 1 0.44,-3.08a3.31,3.31 0 0 1 0.5,-0.51a6.44,6.44 0 0 1 6.39,-1.21c3.47,1.23 9.4,3.07 11,1.89a9.5,9.5 0 0 0 2.77,-2.8l1.15,1.22z" fill="#455a64" id="svg_281"/>
   <path d="m121.1,123.26c-3.71,-1.68 -9.38,-2.72 -12.8,-1.75c-4.12,1.16 -8,2.77 -10.07,6.52l6,1a6.44,6.44 0 0 1 6.39,-1.21c3.47,1.23 9.4,3.07 11,1.89a9.5,9.5 0 0 0 2.77,-2.8l1.23,1.29c0.92,-0.59 -2.07,-3.82 -4.52,-4.94z" fill="#263238" id="svg_282"/>
   <path d="m103.35,130.58a9.11,9.11 0 0 1 -3,-0.07a9.05,9.05 0 0 1 -3,-0.58a8.65,8.65 0 0 1 3,0.06a8.62,8.62 0 0 1 3,0.59z" fill="#263238" id="svg_283"/>
   <path d="m116.69,225.47a6.76,6.76 0 0 1 -0.13,-2.52a15.3,15.3 0 0 1 2.38,-6.42c1.46,-2.52 3.81,-5.1 5.62,-8.43a16.15,16.15 0 0 0 1.14,-2.65a8.25,8.25 0 0 0 0.3,-1.45a0.84,0.84 0 0 0 -0.1,-0.57c-0.08,-0.12 -0.22,-0.16 -0.46,-0.13a17.35,17.35 0 0 0 -5.87,2.27c-1.9,1.09 -3.68,2.31 -5.53,3.3c-0.46,0.26 -0.92,0.49 -1.4,0.71a2.19,2.19 0 0 1 -1.66,0.17a1.48,1.48 0 0 1 -0.87,-1.42a4.16,4.16 0 0 1 0.33,-1.51a98.09,98.09 0 0 1 4.91,-8.92c1.52,-2.46 2.85,-4.39 3.8,-5.7c0.47,-0.65 0.85,-1.16 1.11,-1.49a3.21,3.21 0 0 1 0.42,-0.5a2.83,2.83 0 0 1 -0.33,0.56l-1,1.55c-0.89,1.34 -2.17,3.29 -3.65,5.77s-3.16,5.5 -4.78,8.91a3.64,3.64 0 0 0 -0.28,1.32a1,1 0 0 0 0.57,1c0.77,0.27 1.74,-0.43 2.63,-0.86c1.81,-1 3.59,-2.21 5.52,-3.31a17.72,17.72 0 0 1 6.06,-2.33a1,1 0 0 1 0.94,0.34a1.41,1.41 0 0 1 0.19,0.91a9.38,9.38 0 0 1 -0.38,1.52a16,16 0 0 1 -1.19,2.73c-1.88,3.39 -4.25,5.93 -5.73,8.39a15.91,15.91 0 0 0 -2.49,6.25a15.29,15.29 0 0 0 -0.07,2.51z" fill="#fff" id="svg_284"/>
  </g>
 </g>
</svg>